<svg width="120" height="120" viewBox="0 0 120 120" fill="none" xmlns="http://www.w3.org/2000/svg">
<path d="M6.41789 73.6129C6.81 74.6758 7.42781 75.6325 8.21836 76.4165C9.62016 77.8183 11.5472 78.6885 13.673 78.6885C15.7924 78.6885 17.7258 77.8183 19.1273 76.4165C20.5291 75.0149 21.3994 73.0816 21.3994 70.9621V66.6637C19.7719 66.8031 18.3434 66.4511 17.2273 65.9859C17.1274 66.4708 17.0147 66.9426 16.8684 67.4076C16.317 69.2012 15.3935 70.8358 13.932 72.0116C12.4505 73.2077 10.4841 73.8986 7.87945 73.7655C7.41445 73.7456 6.9293 73.6926 6.41789 73.6129ZM51.9546 62.0995H67.4079V57.2427H55.5089C54.5323 57.2427 53.6419 57.6482 52.9976 58.2925C52.353 58.937 51.9546 59.8206 51.9546 60.7973V62.0995ZM67.4077 65.6139H51.9544V70.9619C51.9544 73.0813 52.8246 75.0147 54.2264 76.4163C55.628 77.818 57.5613 78.6883 59.6808 78.6883C61.8066 78.6883 63.7399 77.818 65.1354 76.4163C66.537 75.0147 67.4074 73.0813 67.4074 70.9619V65.6139H67.4077ZM115.575 77.3467C116.519 77.845 117.349 78.5228 118.033 79.3265C119.262 80.7749 120 82.6417 120 84.6679V96.5202C120 97.4903 119.216 98.2741 118.246 98.2741C117.276 98.2741 116.486 97.4901 116.486 96.5202V84.6679C116.486 83.4988 116.06 82.4223 115.356 81.592C114.731 80.8544 113.888 80.3097 112.924 80.0507C111.071 81.4059 108.792 82.2032 106.334 82.2032C103.789 82.2032 101.437 81.3529 99.5437 79.9112C99.1852 79.9511 98.8395 80.0509 98.5073 80.2038C98.0555 80.4161 97.6437 80.7419 97.3113 81.1802L87.8705 93.6838C87.5384 94.1223 87.0202 94.3881 86.4689 94.3881H74.3707C73.4737 94.3881 72.6633 94.7467 72.0788 95.3313C71.494 95.9226 71.1286 96.733 71.1286 97.6234C71.1286 98.5202 71.494 99.3309 72.0788 99.9154C72.6633 100.5 73.4737 100.866 74.3707 100.866H88.8206C89.3991 100.866 89.8439 100.806 90.3956 100.527C91.4187 100.015 92.3754 98.4606 93.0729 97.5304L99.3248 89.2591C99.9094 88.4819 101.006 88.3288 101.783 88.9136C102.553 89.4981 102.706 90.6009 102.122 91.3717L96.1755 99.2509V114.571H116.486V104.479C116.486 103.509 117.276 102.726 118.246 102.726C119.216 102.726 120 103.51 120 104.479V116.332C120 117.302 119.216 118.086 118.246 118.086C79.413 118.086 40.587 118.086 1.76063 118.086C0.790781 118.086 0 117.302 0 116.332V104.479C0 103.509 0.790781 102.726 1.76063 102.726C2.7307 102.726 3.51445 103.51 3.51445 104.479V114.571H23.8312V99.2509L17.8786 91.3717C17.2941 90.6009 17.4469 89.4981 18.2243 88.9136C18.9949 88.3288 20.0977 88.4816 20.6824 89.2591L26.7945 97.3511C27.3525 98.0884 27.9108 98.8323 28.4686 99.5767C28.7873 99.9951 29.1795 100.314 29.6114 100.527C30.0963 100.772 30.5482 100.866 31.0798 100.866H45.6361C46.5265 100.866 47.337 100.5 47.928 99.9154C48.5128 99.3309 48.8714 98.5202 48.8714 97.6234C48.8714 96.733 48.5128 95.9226 47.928 95.3313C47.337 94.7467 46.5265 94.3881 45.6361 94.3881H33.5313C32.9998 94.3881 32.475 94.1423 32.1298 93.6838L22.6889 81.1802C22.1505 80.4693 21.3466 80.0111 20.4567 79.9112C18.5698 81.3463 16.218 82.2032 13.6734 82.2032C11.2153 82.2032 8.92969 81.4061 7.07625 80.0575C6.13289 80.3034 5.2957 80.8415 4.67109 81.5589C3.95344 82.3959 3.51492 83.4789 3.51492 84.6681V96.5205C3.51492 97.4906 2.73094 98.2743 1.76109 98.2743C0.79125 98.2743 0.00046875 97.4903 0.00046875 96.5205V84.6681C0.00046875 82.6152 0.764531 80.722 2.02008 79.267C2.69789 78.4898 3.51492 77.8319 4.4318 77.347C3.12305 75.4668 2.43211 73.2477 2.43211 70.9623V60.7975C2.43211 58.8508 3.22266 57.0836 4.50492 55.8016C5.78742 54.5261 7.54781 53.7287 9.4943 53.7287H17.8453C19.792 53.7287 21.5592 54.5259 22.8412 55.8016C24.1238 57.0838 24.9143 58.851 24.9143 60.7975V70.9623C24.9143 73.2145 24.2433 75.3208 23.0937 77.0812C24.0438 77.5595 24.8475 78.2172 25.492 79.0677L34.4016 90.8669H41.437V83.7384C41.437 81.7188 42.5067 79.8916 44.2406 78.3435C45.5829 77.1477 47.3501 76.1045 49.3034 75.2809C48.7453 73.9455 48.4399 72.4905 48.4399 70.9623V63.8601V60.7973C48.4399 58.8506 49.237 57.0834 50.513 55.8013C51.7952 54.5259 53.5624 53.7285 55.5089 53.7285H69.1683C70.1386 53.7285 70.9291 54.5191 70.9291 55.4891V63.8603V70.9623C70.9291 72.404 70.6502 73.7861 70.152 75.0616C72.2513 75.8854 74.1513 76.9483 75.5866 78.1839C77.4267 79.7652 78.563 81.652 78.563 83.7381V90.8666H85.5984L94.508 79.0675C95.1659 78.2036 95.9895 77.5394 96.9131 77.0877C95.757 75.3205 95.0859 73.2145 95.0859 70.9621V60.7973C95.0859 58.8506 95.8833 57.0834 97.159 55.8013C98.4413 54.5259 100.208 53.7285 102.155 53.7285H110.506C112.453 53.7285 114.22 54.5256 115.502 55.8013C116.778 57.0836 117.575 58.8508 117.575 60.7973V70.9621C117.575 73.2473 116.877 75.4663 115.575 77.3467ZM113.582 73.6129C113.077 73.6926 112.586 73.7456 112.121 73.7655C109.523 73.8984 107.556 73.2074 106.075 72.0116C104.606 70.8358 103.683 69.2015 103.131 67.4076C102.992 66.9426 102.872 66.4708 102.779 65.9859C101.656 66.4509 100.235 66.8029 98.6004 66.6637V70.9621C98.6004 73.0816 99.4706 75.0149 100.872 76.4165C102.274 77.8183 104.208 78.6885 106.334 78.6885C108.453 78.6885 110.386 77.8183 111.788 76.4165C112.572 75.6325 113.19 74.6758 113.582 73.6129ZM98.6004 63.1424C100.946 63.4745 102.66 62.1126 102.965 61.8468C103.311 61.5545 103.636 61.3752 104.108 61.3551C105.078 61.3087 105.895 62.0528 105.941 63.0227C106.001 64.1655 106.161 65.3216 106.486 66.3777C106.845 67.5536 107.41 68.59 108.267 69.2809C109.111 69.9587 110.3 70.3441 111.954 70.2641C112.592 70.2309 113.29 70.1315 114.06 69.9585V60.7968C114.06 59.8202 113.655 58.9366 113.01 58.292C112.366 57.6477 111.482 57.2423 110.506 57.2423H102.155C101.178 57.2423 100.294 57.6477 99.6499 58.292C99.0054 58.9366 98.6004 59.8202 98.6004 60.7968V63.1424ZM21.3996 63.1424V60.797C21.3996 59.8204 21.0012 58.9368 20.3566 58.2923C19.7123 57.648 18.822 57.2425 17.8453 57.2425H9.49383C8.52398 57.2425 7.63359 57.648 6.98906 58.2923C6.34477 58.9368 5.94609 59.8204 5.94609 60.797V69.9587C6.71016 70.1315 7.40766 70.2311 8.04562 70.2644C9.70008 70.3443 10.8893 69.9588 11.7328 69.2812C12.5899 68.5905 13.1545 67.5538 13.5202 66.378C13.8457 65.3216 14.0051 64.1657 14.0583 63.0229C14.1047 62.0528 14.9285 61.3089 15.8918 61.3553C16.3437 61.3755 16.6889 61.5414 17.0212 61.8337C17.2673 62.0528 19.008 63.4811 21.3996 63.1424ZM51.184 78.3034C49.35 79.0143 47.7291 79.9178 46.5729 80.9545C45.5698 81.8446 44.9517 82.8013 44.9517 83.7381V90.8666H45.6361C47.4966 90.8666 49.1906 91.6239 50.4131 92.8464C51.6356 94.0689 52.3929 95.7564 52.3929 97.6234C52.3929 98.7993 52.0873 99.9023 51.5625 100.866H68.4375C67.9127 99.9023 67.6137 98.7993 67.6137 97.6234C67.6137 95.7564 68.3709 94.0689 69.5937 92.8464C70.8162 91.6239 72.5034 90.8666 74.3705 90.8666H75.0483V83.7381C75.0483 82.768 74.3838 81.7715 73.3076 80.848C72.0452 79.7652 70.2912 78.8284 68.3379 78.1176C68.112 78.3899 67.8729 78.6557 67.627 78.9016C65.5875 80.9411 62.7771 82.2034 59.6813 82.2034C56.5917 82.2034 53.775 80.9411 51.742 78.9016C51.5491 78.7084 51.363 78.5095 51.184 78.3034ZM14.6496 14.9289C13.6795 14.9289 12.8958 14.1384 12.8958 13.1683C12.8958 12.1982 13.6798 11.4145 14.6496 11.4145H47.1907C48.1608 11.4145 48.9448 12.1984 48.9448 13.1683C48.9448 14.1384 48.1605 14.9289 47.1907 14.9289H14.6496ZM14.6496 33.4251C13.6795 33.4251 12.8958 32.6345 12.8958 31.6645C12.8958 30.6944 13.6798 29.9038 14.6496 29.9038H30.9204C31.8905 29.9038 32.681 30.6944 32.681 31.6645C32.681 32.6345 31.8905 33.4251 30.9204 33.4251H14.6496ZM14.6496 24.1771C13.6795 24.1771 12.8958 23.3863 12.8958 22.4165C12.8958 21.4464 13.6798 20.6627 14.6496 20.6627H47.1907C48.1608 20.6627 48.9448 21.4466 48.9448 22.4165C48.9448 23.3863 48.1605 24.1771 47.1907 24.1771H14.6496ZM48.9912 42.9189C49.237 43.6033 49.6289 44.2143 50.1274 44.7126C51.0178 45.6095 52.2534 46.1676 53.6285 46.1676H63.9595C64.9296 46.1676 65.7134 46.9516 65.7134 47.9282C65.7134 48.8983 64.9294 49.682 63.9595 49.682H53.6285C51.2834 49.682 49.1705 48.7255 47.6423 47.1841C46.4998 46.0349 45.6891 44.56 45.3436 42.9189H20.835L12.8759 50.878C12.5571 51.197 12.1186 51.3962 11.6269 51.3962C10.6568 51.3962 9.86625 50.6123 9.86625 49.6424V42.7729C7.63383 42.4007 5.63391 41.3312 4.09945 39.7898C2.16609 37.863 0.970312 35.1988 0.970312 32.2623V12.5706C0.970312 9.6407 2.16633 6.97656 4.09945 5.04344C6.02602 3.11664 8.69016 1.91406 11.6269 1.91406H50.2141C53.1504 1.91406 55.8148 3.11664 57.7413 5.04344C59.6747 6.97656 60.8705 9.6407 60.8705 12.5706V15.8261H90.728C93.0598 15.8261 95.1727 16.7762 96.7073 18.3109C98.242 19.8456 99.1922 21.9583 99.1922 24.2903V41.2185C99.1922 43.5505 98.242 45.6632 96.7073 47.1979C95.5711 48.3341 94.1098 49.1512 92.482 49.4969V56.4062C92.482 56.8513 92.3159 57.303 91.9704 57.6487C91.286 58.3328 90.1699 58.3328 89.4853 57.6487L81.5196 49.6827H71.9194C70.9493 49.6827 70.1588 48.8987 70.1588 47.9289C70.1588 46.9523 70.9493 46.1683 71.9194 46.1683H82.2504C82.7421 46.1683 83.1804 46.3677 83.4994 46.693L88.9671 52.1608V47.9287C88.9671 46.952 89.7577 46.168 90.728 46.168C92.0831 46.168 93.3255 45.61 94.2225 44.7131C95.1195 43.8163 95.6775 42.5805 95.6775 41.2185V24.2903C95.6775 22.9284 95.1195 21.6927 94.2225 20.7958C93.3255 19.8988 92.0831 19.3408 90.728 19.3408H60.8702V32.2628C60.8702 35.1993 59.6745 37.8634 57.7411 39.7902C55.8143 41.7234 53.1502 42.9194 50.2139 42.9194H48.9912V42.9189ZM20.104 39.4045H50.2139C52.1805 39.4045 53.9609 38.6006 55.2565 37.3052C56.5519 36.0095 57.3558 34.2224 57.3558 32.2623V12.5706C57.3558 10.6108 56.5519 8.82367 55.2565 7.52805C53.9611 6.23242 52.1805 5.42852 50.2139 5.42852H11.6266C9.66 5.42852 7.87945 6.23242 6.58383 7.52805C5.28844 8.82344 4.4843 10.6105 4.4843 12.5706V32.2626C4.4843 34.2224 5.28844 36.0095 6.58383 37.3054C7.87922 38.6008 9.66 39.4047 11.6266 39.4047C12.5967 39.4047 13.3805 40.1952 13.3805 41.1653V45.3974L18.8616 39.9231C19.2073 39.5772 19.6523 39.4045 20.104 39.4045ZM92.6609 104.38H27.3459V114.571H92.6611V104.38H92.6609Z" fill="black"/>
</svg>
