<svg width="120" height="120" viewBox="0 0 120 120" fill="none" xmlns="http://www.w3.org/2000/svg">
<g clip-path="url(#clip0)">
<path d="M112.151 20.771C94.6156 16.2246 76.9774 9.14501 61.1431 0.297775C60.4327 -0.0992584 59.5672 -0.0992584 58.8568 0.297775C42.5674 9.39837 25.8826 16.0952 7.84898 20.771C6.81538 21.0391 6.09351 21.972 6.09351 23.0398V48.9133C6.09351 75.523 19.0526 93.1251 29.924 103.206C41.5858 114.02 55.1098 120 60.0001 120C64.8899 120 78.4138 114.02 90.0759 103.206C100.947 93.1249 113.906 75.5228 113.906 48.9133V23.0398C113.906 21.9722 113.184 21.0391 112.151 20.771ZM86.8887 99.7687C80.43 105.758 74.1536 109.539 70.0257 111.656C64.7947 114.339 61.164 115.313 60.0003 115.313C58.8364 115.313 55.2057 114.339 49.9746 111.656C45.8468 109.538 39.5702 105.758 33.1115 99.7687C22.9243 90.3224 10.781 73.8317 10.781 48.9133V24.8459C28.1162 20.2052 44.25 13.7074 60.0003 5.02397C75.3512 13.4756 92.3035 20.3018 109.219 24.8449V48.9133H109.219C109.219 73.8317 97.0758 90.3224 86.8887 99.7687Z" fill="black"/>
<path d="M104.014 27.0399C89.1697 22.7243 74.7323 16.8626 61.1029 9.61751C60.4147 9.25165 59.589 9.25165 58.9004 9.61868C45.2511 16.8935 30.8137 22.7564 15.9892 27.0443C14.9867 27.3343 14.2965 28.2521 14.2965 29.2958V48.9133C14.2965 58.072 16.0321 66.7634 19.4547 74.7465C22.8602 82.6895 27.9393 89.9388 34.5504 96.2929C39.2787 100.837 44.7385 104.842 50.3394 107.874C51.3427 108.418 56.5039 111.156 59.5743 111.723C59.7149 111.749 59.8574 111.762 59.9997 111.762C60.1422 111.762 60.2847 111.749 60.4251 111.723C63.4947 111.156 68.6564 108.418 69.66 107.874C75.2604 104.843 80.7199 100.838 85.4487 96.2932C92.06 89.939 97.1389 82.6897 100.544 74.7467C103.968 66.7634 105.704 58.072 105.704 48.9133V29.2906C105.704 28.2483 105.015 27.331 104.014 27.0399ZM101.016 48.9133C101.016 66.1104 94.6855 80.9143 82.201 92.9132C77.772 97.17 72.664 100.918 67.4289 103.752C65.046 105.042 61.8292 106.546 60.0001 107.018C58.1704 106.546 54.9538 105.042 52.5713 103.752C47.3358 100.918 42.2276 97.17 37.7988 92.9132C25.3143 80.9143 18.9843 66.1107 18.9843 48.9133V31.0505C33.1298 26.8386 46.9151 21.2222 60.0041 14.3383C73.0727 21.1938 86.8564 26.8081 101.016 31.0428V48.9133Z" fill="black"/>
<path d="M40.5529 83.9776L40.496 83.9162C39.6173 82.966 38.1342 82.9084 37.184 83.7873C36.2338 84.6662 36.1759 86.1491 37.0551 87.0993C37.0572 87.1019 37.0755 87.1215 37.0839 87.1304C37.5454 87.6334 38.1773 87.8894 38.8115 87.8894C39.37 87.8894 39.9307 87.6908 40.3785 87.2877C41.3407 86.4215 41.4187 84.9395 40.5529 83.9776Z" fill="black"/>
<path d="M53.1948 94.6162C50.3719 92.8349 47.6534 90.7813 45.1151 88.5121C44.1504 87.6493 42.6684 87.7321 41.8057 88.6975C40.943 89.6624 41.0259 91.1441 41.9909 92.0069C44.7228 94.4491 47.6506 96.6609 50.693 98.5807C51.0814 98.8258 51.5138 98.9425 51.9416 98.9425C52.7192 98.9425 53.48 98.5556 53.9258 97.8492C54.617 96.7542 54.2893 95.3069 53.1948 94.6162Z" fill="black"/>
<path d="M80.5225 41.1065C79.1409 39.7247 77.2982 38.9639 75.3349 38.9639C73.3713 38.9639 71.5288 39.7249 70.1472 41.1065L55.2561 55.9979L49.8523 50.5943C48.4706 49.2124 46.6284 48.4514 44.6648 48.4514C42.7015 48.4514 40.859 49.2124 39.4769 50.5943C36.6166 53.4546 36.6166 58.1091 39.4769 60.9695L50.0686 71.5607C51.4503 72.9426 53.2927 73.7036 55.2561 73.7036C57.2197 73.7036 59.0621 72.9426 60.4438 71.5607L80.5225 51.4819C81.9044 50.1003 82.6652 48.2578 82.6652 46.2942C82.6652 44.3306 81.9044 42.4884 80.5225 41.1065ZM77.2078 48.1674L57.1292 68.2461C56.6326 68.7425 55.9674 69.0161 55.2561 69.0161C54.5447 69.0161 53.8793 68.7428 53.3829 68.2461L42.7919 57.6551C42.2955 57.1587 42.0222 56.4936 42.0222 55.7822C42.022 55.0707 42.2955 54.4055 42.7922 53.9091C43.2886 53.4127 43.9537 53.1394 44.6651 53.1394C45.3764 53.1394 46.0413 53.4127 46.538 53.9091L53.599 60.9699C54.5143 61.8852 55.9983 61.8852 56.9136 60.9699L73.462 44.4213C73.9584 43.9249 74.6233 43.6516 75.3349 43.6516C76.0462 43.6516 76.7113 43.9251 77.2078 44.4216C77.7042 44.918 77.9775 45.5831 77.9775 46.2945C77.9775 47.006 77.7042 47.6712 77.2078 48.1674Z" fill="black"/>
</g>
<defs>
<clipPath id="clip0">
<rect width="120" height="120" fill="white"/>
</clipPath>
</defs>
</svg>
