<svg width="120" height="120" viewBox="0 0 120 120" fill="none" xmlns="http://www.w3.org/2000/svg">
<path d="M65.625 24.375V13.125C65.625 12.6277 65.4275 12.1508 65.0758 11.7992C64.7242 11.4475 64.2473 11.25 63.75 11.25H22.5C22.0027 11.25 21.5258 11.4475 21.1742 11.7992C20.8225 12.1508 20.625 12.6277 20.625 13.125V24.375C20.625 24.8723 20.8225 25.3492 21.1742 25.7008C21.5258 26.0525 22.0027 26.25 22.5 26.25H63.75C64.2473 26.25 64.7242 26.0525 65.0758 25.7008C65.4275 25.3492 65.625 24.8723 65.625 24.375ZM61.875 22.5H24.375V15H61.875V22.5Z" fill="black"/>
<path d="M13.125 33.75V56.25C13.125 56.7473 13.3225 57.2242 13.6742 57.5758C14.0258 57.9275 14.5027 58.125 15 58.125H37.5C37.9973 58.125 38.4742 57.9275 38.8258 57.5758C39.1775 57.2242 39.375 56.7473 39.375 56.25V45.4538L35.625 49.2038V54.375H16.875V35.625H33.2962L37.0462 31.875H15C14.5027 31.875 14.0258 32.0725 13.6742 32.4242C13.3225 32.7758 13.125 33.2527 13.125 33.75Z" fill="black"/>
<path d="M41.7994 32.4243L28.125 46.0987L23.8256 41.7993L21.1744 44.4506L26.7994 50.0756C27.151 50.4271 27.6278 50.6245 28.125 50.6245C28.6222 50.6245 29.099 50.4271 29.4506 50.0756L44.4506 35.0756L41.7994 32.4243Z" fill="black"/>
<path d="M13.125 88.125C13.125 88.6223 13.3225 89.0992 13.6742 89.4508C14.0258 89.8025 14.5027 90 15 90H37.5C37.9973 90 38.4742 89.8025 38.8258 89.4508C39.1775 89.0992 39.375 88.6223 39.375 88.125V77.3288L35.625 81.0788V86.25H16.875V67.5H33.2962L37.0462 63.75H15C14.5027 63.75 14.0258 63.9475 13.6742 64.2992C13.3225 64.6508 13.125 65.1277 13.125 65.625V88.125Z" fill="black"/>
<path d="M23.8256 73.6743L21.1744 76.3256L26.7994 81.9506C27.151 82.3021 27.6278 82.4995 28.125 82.4995C28.6222 82.4995 29.099 82.3021 29.4506 81.9506L44.4506 66.9506L41.7994 64.2993L28.125 77.9737L23.8256 73.6743Z" fill="black"/>
<path d="M48.75 45H73.125V48.75H48.75V45Z" fill="black"/>
<path d="M48.75 35.625H73.125V39.375H48.75V35.625Z" fill="black"/>
<path d="M48.75 67.5H60V71.25H48.75V67.5Z" fill="black"/>
<path d="M48.75 76.875H60V80.625H48.75V76.875Z" fill="black"/>
<path d="M7.5 112.5V7.5H78.75V47.5425C80.015 47.1 81.265 46.6169 82.5 46.0931V5.625C82.5 5.12772 82.3025 4.65081 81.9508 4.29917C81.5992 3.94754 81.1223 3.75 80.625 3.75H5.625C5.12772 3.75 4.65081 3.94754 4.29917 4.29917C3.94754 4.65081 3.75 5.12772 3.75 5.625V114.375C3.75 114.872 3.94754 115.349 4.29917 115.701C4.65081 116.052 5.12772 116.25 5.625 116.25H80.625C80.8225 116.242 81.0174 116.203 81.2025 116.134C79.4328 115.04 77.7401 113.826 76.1362 112.5H7.5Z" fill="black"/>
<path d="M114.579 54.3864C106.288 53.4875 98.244 51.0125 90.8813 47.0945C90.61 46.9501 90.3073 46.8745 90 46.8745C89.6927 46.8745 89.39 46.9501 89.1187 47.0945C81.756 51.0125 73.7124 53.4875 65.4206 54.3864C64.9615 54.4367 64.5371 54.6548 64.2288 54.9987C63.9205 55.3426 63.75 55.7883 63.75 56.2501V78.4595C63.8017 86.5565 66.2552 94.456 70.7996 101.158C75.344 107.859 81.775 113.062 89.2781 116.106C89.5068 116.201 89.7522 116.25 90 116.25C90.2478 116.25 90.4932 116.201 90.7219 116.106C98.225 113.062 104.656 107.859 109.2 101.158C113.745 94.456 116.198 86.5565 116.25 78.4595V56.2501C116.25 55.7883 116.079 55.3426 115.771 54.9987C115.463 54.6548 115.039 54.4367 114.579 54.3864ZM112.5 78.4595C112.45 85.6823 110.295 92.7338 106.298 98.7505C102.302 104.767 96.6382 109.488 90 112.335C83.3618 109.488 77.6978 104.767 73.7015 98.7505C69.7052 92.7338 67.5501 85.6823 67.5 78.4595V57.9095C75.3478 56.8672 82.9584 54.4851 90 50.867C97.0415 54.4854 104.652 56.8675 112.5 57.9095V78.4595Z" fill="black"/>
<path d="M74.4506 77.4243L71.7994 80.0756L83.0494 91.3256C83.401 91.6771 83.8778 91.8745 84.375 91.8745C84.8722 91.8745 85.349 91.6771 85.7006 91.3256L108.201 68.8256L105.549 66.1743L84.375 87.3487L74.4506 77.4243Z" fill="black"/>
<path d="M46.875 103.125H60V106.875H46.875V103.125Z" fill="black"/>
<path d="M30 95.625H60V99.375H30V95.625Z" fill="black"/>
</svg>
