<svg width="120" height="120" viewBox="0 0 120 120" fill="none" xmlns="http://www.w3.org/2000/svg">
<path d="M106.406 108.75C108.519 108.748 110.544 107.907 112.038 106.413C113.532 104.919 114.373 102.894 114.375 100.781V19.2188C114.373 17.106 113.532 15.0805 112.038 13.5866C110.544 12.0927 108.519 11.2524 106.406 11.25H58.5938C56.481 11.2524 54.4555 12.0927 52.9616 13.5866C51.4677 15.0805 50.6274 17.106 50.625 19.2188V63.75H11.7188C10.6003 63.7513 9.52797 64.1962 8.73708 64.9871C7.9462 65.778 7.5013 66.8503 7.5 67.9688V104.531C7.5013 105.65 7.9462 106.722 8.73708 107.513C9.52797 108.304 10.6003 108.749 11.7188 108.75H106.406ZM52.5 105V101.25H67.5C67.9973 101.25 68.4742 101.052 68.8258 100.701C69.1775 100.349 69.375 99.8723 69.375 99.375C69.3762 98.3808 69.7716 97.4277 70.4746 96.7246C71.1777 96.0216 72.1308 95.6262 73.125 95.625C73.6223 95.625 74.0992 95.4275 74.4508 95.0758C74.8025 94.7242 75 94.2473 75 93.75V78.75C75 78.2527 74.8025 77.7758 74.4508 77.4242C74.0992 77.0725 73.6223 76.875 73.125 76.875C72.1308 76.8738 71.1777 76.4783 70.4747 75.7753C69.7717 75.0723 69.3762 74.1192 69.375 73.125C69.375 72.6277 69.1775 72.1508 68.8258 71.7992C68.4742 71.4475 67.9973 71.25 67.5 71.25H52.5V67.5H78.2812C78.4056 67.5 78.5248 67.5494 78.6127 67.6373C78.7006 67.7252 78.75 67.8444 78.75 67.9688V104.531C78.75 104.656 78.7006 104.775 78.6127 104.863C78.5248 104.951 78.4056 105 78.2812 105H52.5ZM52.5 94.646V77.8709C53.676 78.9278 54.6173 80.2197 55.2632 81.6629C55.9092 83.1062 56.2453 84.6688 56.25 86.25C56.2566 87.8355 55.9256 89.4042 55.2791 90.8518C54.6325 92.2994 53.6851 93.5928 52.5 94.646ZM60 86.25C59.9936 84.122 59.537 82.0194 58.66 80.0804C57.7831 78.1415 56.5058 76.4101 54.912 75H65.8624C66.1999 76.2961 66.8772 77.4787 67.8242 78.4258C68.7713 79.3728 69.9539 80.0501 71.25 80.3876V92.1124C69.9539 92.4499 68.7712 93.1271 67.8242 94.0742C66.8771 95.0212 66.1999 96.2039 65.8624 97.5H54.9359C56.5349 96.0956 57.8144 94.3648 58.6879 92.4242C59.5615 90.4835 60.0089 88.3782 60 86.25ZM61.875 60C61.875 59.2583 62.0949 58.5333 62.507 57.9166C62.919 57.2999 63.5047 56.8193 64.1899 56.5354C64.8752 56.2516 65.6292 56.1774 66.3566 56.3221C67.084 56.4668 67.7522 56.8239 68.2767 57.3484C68.8011 57.8728 69.1582 58.541 69.3029 59.2684C69.4476 59.9958 69.3734 60.7498 69.0896 61.4351C68.8057 62.1203 68.3251 62.706 67.7084 63.118C67.0917 63.5301 66.3667 63.75 65.625 63.75C64.6308 63.7488 63.6777 63.3534 62.9746 62.6504C62.2716 61.9473 61.8762 60.9942 61.875 60ZM78.75 60C78.75 59.2583 78.9699 58.5333 79.382 57.9166C79.794 57.2999 80.3797 56.8193 81.0649 56.5354C81.7502 56.2516 82.5042 56.1774 83.2316 56.3221C83.959 56.4668 84.6272 56.8239 85.1517 57.3484C85.6761 57.8728 86.0332 58.541 86.1779 59.2684C86.3226 59.9958 86.2484 60.7498 85.9645 61.4351C85.6807 62.1203 85.2001 62.706 84.5834 63.118C83.9667 63.5301 83.2417 63.75 82.5 63.75C81.5058 63.7488 80.5527 63.3534 79.8496 62.6504C79.1466 61.9473 78.7512 60.9942 78.75 60ZM82.5 90C83.4946 90 84.4484 90.3951 85.1517 91.0983C85.8549 91.8016 86.25 92.7554 86.25 93.75C86.25 94.7446 85.8549 95.6984 85.1517 96.4017C84.4484 97.1049 83.4946 97.5 82.5 97.5V90ZM82.5 73.125C83.4946 73.125 84.4484 73.5201 85.1517 74.2233C85.8549 74.9266 86.25 75.8804 86.25 76.875C86.25 77.8696 85.8549 78.8234 85.1517 79.5267C84.4484 80.2299 83.4946 80.625 82.5 80.625V73.125ZM54.375 19.2188C54.3763 18.1003 54.8212 17.028 55.6121 16.2371C56.403 15.4462 57.4753 15.0013 58.5938 15H106.406C107.525 15.0013 108.597 15.4462 109.388 16.2371C110.179 17.028 110.624 18.1003 110.625 19.2188V100.781C110.624 101.9 110.179 102.972 109.388 103.763C108.597 104.554 107.525 104.999 106.406 105H82.4723C82.4902 104.844 82.4995 104.688 82.5 104.531V101.25C84.4891 101.25 86.3968 100.46 87.8033 99.0533C89.2098 97.6468 90 95.7391 90 93.75C90 91.7609 89.2098 89.8532 87.8033 88.4467C86.3968 87.0402 84.4891 86.25 82.5 86.25V84.375C84.4891 84.375 86.3968 83.5848 87.8033 82.1783C89.2098 80.7718 90 78.8641 90 76.875C90 74.8859 89.2098 72.9782 87.8033 71.5717C86.3968 70.1652 84.4891 69.375 82.5 69.375V67.9688C82.4994 67.8121 82.4902 67.6556 82.4723 67.5H82.5C84.1538 67.5022 85.7621 66.9583 87.0753 65.9529C88.3884 64.9475 89.3329 63.5368 89.7623 61.9396C90.1916 60.3425 90.0817 58.6483 89.4496 57.12C88.8175 55.5917 87.6986 54.3148 86.2666 53.4875C84.8346 52.6602 83.1695 52.3287 81.5298 52.5445C79.8901 52.7604 78.3675 53.5114 77.1983 54.6812C76.0292 55.8509 75.2788 57.3738 75.0638 59.0136C74.8487 60.6534 75.181 62.3184 76.009 63.75H72.1172C72.7771 62.61 73.1251 61.3163 73.1262 59.999C73.1273 58.6818 72.7814 57.3875 72.1235 56.2464C71.4655 55.1053 70.5185 54.1576 69.378 53.4986C68.2374 52.8397 66.9434 52.4928 65.6262 52.4928C64.3089 52.4928 63.0149 52.8397 61.8744 53.4986C60.7338 54.1576 59.7869 55.1053 59.1289 56.2464C58.4709 57.3875 58.1251 58.6818 58.1262 59.999C58.1273 61.3163 58.4753 62.61 59.1352 63.75H54.375V19.2188ZM37.5 77.8709V94.6383C36.3202 93.5834 35.3764 92.2913 34.7302 90.8467C34.084 89.402 33.75 87.8372 33.75 86.2546C33.75 84.672 34.084 83.1072 34.7302 81.6625C35.3764 80.2178 36.3202 78.9258 37.5 77.8709ZM30 86.25C29.9981 88.3782 30.4497 90.4823 31.325 92.4222C32.2002 94.3621 33.4788 96.0931 35.0756 97.5H24.1376C23.8001 96.2039 23.1229 95.0212 22.1758 94.0742C21.2288 93.1271 20.0461 92.4499 18.75 92.1124V80.3876C20.0461 80.0501 21.2288 79.3729 22.1758 78.4258C23.1229 77.4788 23.8001 76.2961 24.1376 75H35.088C33.4942 76.4101 32.2169 78.1415 31.34 80.0804C30.463 82.0194 30.0064 84.122 30 86.25ZM11.25 104.531V67.9688C11.25 67.8444 11.2994 67.7252 11.3873 67.6373C11.4752 67.5494 11.5944 67.5 11.7188 67.5H37.5V71.25H22.5C22.0027 71.25 21.5258 71.4475 21.1742 71.7992C20.8225 72.1508 20.625 72.6277 20.625 73.125C20.6238 74.1192 20.2284 75.0723 19.5253 75.7754C18.8223 76.4784 17.8692 76.8738 16.875 76.875C16.3777 76.875 15.9008 77.0725 15.5492 77.4242C15.1975 77.7758 15 78.2527 15 78.75V93.75C15 94.2473 15.1975 94.7242 15.5492 95.0758C15.9008 95.4275 16.3777 95.625 16.875 95.625C17.8692 95.6262 18.8223 96.0216 19.5253 96.7246C20.2284 97.4277 20.6238 98.3808 20.625 99.375C20.625 99.8723 20.8225 100.349 21.1742 100.701C21.5258 101.052 22.0027 101.25 22.5 101.25H37.5V105H11.7188C11.5944 105 11.4752 104.951 11.3873 104.863C11.2994 104.775 11.25 104.656 11.25 104.531ZM41.25 105V67.5H48.75V105H41.25Z" fill="black"/>
<path d="M60 48.75H105C105.497 48.75 105.974 48.5525 106.326 48.2008C106.677 47.8492 106.875 47.3723 106.875 46.875V20.625C106.875 20.1277 106.677 19.6508 106.326 19.2992C105.974 18.9475 105.497 18.75 105 18.75H60C59.5027 18.75 59.0258 18.9475 58.6742 19.2992C58.3225 19.6508 58.125 20.1277 58.125 20.625V46.875C58.125 47.3723 58.3225 47.8492 58.6742 48.2008C59.0258 48.5525 59.5027 48.75 60 48.75ZM61.875 22.5H103.125V45H61.875V22.5Z" fill="black"/>
<path d="M99.375 52.5C97.8916 52.5 96.4416 52.9399 95.2082 53.764C93.9749 54.5881 93.0136 55.7594 92.4459 57.1299C91.8782 58.5003 91.7297 60.0083 92.0191 61.4632C92.3085 62.918 93.0228 64.2544 94.0717 65.3033C95.1206 66.3522 96.457 67.0665 97.9118 67.3559C99.3667 67.6453 100.875 67.4968 102.245 66.9291C103.616 66.3615 104.787 65.4002 105.611 64.1668C106.435 62.9334 106.875 61.4834 106.875 60C106.873 58.0116 106.082 56.1052 104.676 54.6992C103.27 53.2931 101.363 52.5022 99.375 52.5ZM99.375 63.75C98.6333 63.75 97.9083 63.5301 97.2916 63.118C96.6749 62.706 96.1943 62.1203 95.9105 61.4351C95.6266 60.7498 95.5524 59.9958 95.6971 59.2684C95.8418 58.541 96.1989 57.8728 96.7234 57.3484C97.2478 56.8239 97.916 56.4668 98.6434 56.3221C99.3708 56.1774 100.125 56.2516 100.81 56.5355C101.495 56.8193 102.081 57.2999 102.493 57.9166C102.905 58.5333 103.125 59.2583 103.125 60C103.124 60.9942 102.728 61.9474 102.025 62.6504C101.322 63.3534 100.369 63.7488 99.375 63.75Z" fill="black"/>
<path d="M99.375 69.375C97.8916 69.375 96.4416 69.8149 95.2082 70.639C93.9749 71.4631 93.0136 72.6344 92.4459 74.0049C91.8782 75.3753 91.7297 76.8833 92.0191 78.3382C92.3085 79.793 93.0228 81.1294 94.0717 82.1783C95.1206 83.2272 96.457 83.9415 97.9118 84.2309C99.3667 84.5203 100.875 84.3718 102.245 83.8041C103.616 83.2365 104.787 82.2752 105.611 81.0418C106.435 79.8084 106.875 78.3584 106.875 76.875C106.873 74.8866 106.082 72.9802 104.676 71.5742C103.27 70.1681 101.363 69.3772 99.375 69.375ZM99.375 80.625C98.6333 80.625 97.9083 80.4051 97.2916 79.993C96.6749 79.581 96.1943 78.9953 95.9105 78.3101C95.6266 77.6248 95.5524 76.8708 95.6971 76.1434C95.8418 75.416 96.1989 74.7478 96.7234 74.2234C97.2478 73.6989 97.916 73.3418 98.6434 73.1971C99.3708 73.0524 100.125 73.1266 100.81 73.4105C101.495 73.6943 102.081 74.1749 102.493 74.7916C102.905 75.4083 103.125 76.1333 103.125 76.875C103.124 77.8692 102.728 78.8224 102.025 79.5254C101.322 80.2284 100.369 80.6238 99.375 80.625Z" fill="black"/>
<path d="M99.375 86.25C97.8916 86.25 96.4416 86.6899 95.2082 87.514C93.9749 88.3381 93.0136 89.5094 92.4459 90.8799C91.8782 92.2503 91.7297 93.7583 92.0191 95.2132C92.3085 96.668 93.0228 98.0044 94.0717 99.0533C95.1206 100.102 96.457 100.817 97.9118 101.106C99.3667 101.395 100.875 101.247 102.245 100.679C103.616 100.111 104.787 99.1502 105.611 97.9168C106.435 96.6834 106.875 95.2334 106.875 93.75C106.873 91.7616 106.082 89.8552 104.676 88.4492C103.27 87.0431 101.363 86.2522 99.375 86.25ZM99.375 97.5C98.6333 97.5 97.9083 97.2801 97.2916 96.868C96.6749 96.456 96.1943 95.8703 95.9105 95.1851C95.6266 94.4998 95.5524 93.7458 95.6971 93.0184C95.8418 92.291 96.1989 91.6228 96.7234 91.0984C97.2478 90.5739 97.916 90.2168 98.6434 90.0721C99.3708 89.9274 100.125 90.0016 100.81 90.2855C101.495 90.5693 102.081 91.0499 102.493 91.6666C102.905 92.2833 103.125 93.0083 103.125 93.75C103.124 94.7442 102.728 95.6974 102.025 96.4004C101.322 97.1034 100.369 97.4988 99.375 97.5Z" fill="black"/>
<path d="M91.3259 26.7992C91.1518 26.6251 90.9451 26.487 90.7176 26.3927C90.4901 26.2985 90.2463 26.25 90 26.25C89.7538 26.25 89.51 26.2985 89.2825 26.3927C89.055 26.487 88.8483 26.6251 88.6742 26.7992L77.4242 38.0492C77.2501 38.2233 77.112 38.43 77.0177 38.6575C76.9235 38.885 76.875 39.1288 76.875 39.3751C76.875 39.6213 76.9235 39.8651 77.0177 40.0926C77.112 40.3201 77.2501 40.5268 77.4242 40.7009C77.5983 40.875 77.805 41.0132 78.0325 41.1074C78.26 41.2016 78.5038 41.2501 78.7501 41.2501C78.9963 41.2501 79.2401 41.2016 79.4676 41.1074C79.6951 41.0132 79.9018 40.875 80.0759 40.7009L91.3259 29.4509C91.5 29.2768 91.6382 29.0701 91.7324 28.8426C91.8266 28.6151 91.8751 28.3713 91.8751 28.1251C91.8751 27.8788 91.8266 27.635 91.7324 27.4075C91.6382 27.18 91.5 26.9733 91.3259 26.7992Z" fill="black"/>
<path d="M78.2812 32.8125C80.0934 32.8125 81.5625 31.3434 81.5625 29.5312C81.5625 27.7191 80.0934 26.25 78.2812 26.25C76.4691 26.25 75 27.7191 75 29.5312C75 31.3434 76.4691 32.8125 78.2812 32.8125Z" fill="black"/>
<path d="M90.4688 41.25C92.2809 41.25 93.75 39.7809 93.75 37.9688C93.75 36.1566 92.2809 34.6875 90.4688 34.6875C88.6566 34.6875 87.1875 36.1566 87.1875 37.9688C87.1875 39.7809 88.6566 41.25 90.4688 41.25Z" fill="black"/>
<path d="M24.375 88.125C25.4105 88.125 26.25 87.2855 26.25 86.25C26.25 85.2145 25.4105 84.375 24.375 84.375C23.3395 84.375 22.5 85.2145 22.5 86.25C22.5 87.2855 23.3395 88.125 24.375 88.125Z" fill="black"/>
<path d="M65.625 87.6628C66.6605 87.6628 67.5 86.8234 67.5 85.7878C67.5 84.7523 66.6605 83.9128 65.625 83.9128C64.5895 83.9128 63.75 84.7523 63.75 85.7878C63.75 86.8234 64.5895 87.6628 65.625 87.6628Z" fill="black"/>
</svg>
