<svg width="120" height="120" viewBox="0 0 120 120" fill="none" xmlns="http://www.w3.org/2000/svg">
<path d="M116.901 75.245H111.39L101.016 44.7012C105.757 43.2806 109.073 38.7899 109.038 33.8426C108.986 27.7185 103.917 22.6808 97.7893 22.6808C93.86 22.6784 90.1782 24.7688 88.1528 28.1335C87.2715 29.5975 85.6641 30.4894 83.9599 30.4422C83.6021 30.4338 83.212 30.3674 82.767 30.2389L67.6276 25.8702V21.362L68.9392 18.5C70.3542 15.4108 69.9373 11.8259 67.8507 9.1441L61.4398 0.905496C60.9952 0.334048 60.3121 0 59.5884 0C58.8647 0 58.1814 0.334048 57.7371 0.905261L51.3264 9.14386C49.2395 11.8256 48.8224 15.4106 50.2379 18.5L51.5492 21.362V25.8697L36.4091 30.2384C34.3563 30.831 32.1313 29.9724 31.0238 28.133C28.9043 24.6124 24.9825 22.5117 20.8785 22.6928C14.8602 22.9597 10.0555 28.0659 10.1401 34.0882C10.203 38.9938 13.578 43.3876 18.2901 44.7376L8.31179 75.245H3.09862C1.80301 75.245 0.752777 76.2955 0.752777 77.5909V82.9554C0.752777 88.1094 4.94597 92.3024 10.0998 92.3024H33.3799C38.5338 92.3024 42.727 88.1094 42.727 82.9554V77.5909C42.727 76.2955 41.6767 75.245 40.3811 75.245H34.8693L24.6569 45.1739H51.5492V101.047H28.1527C22.1825 101.047 17.3252 105.905 17.3252 111.875V117.616C17.3252 118.911 18.3755 119.962 19.6711 119.962H49.4103C50.7059 119.962 51.7561 118.911 51.7561 117.616C51.7561 116.32 50.7059 115.27 49.4103 115.27H22.0169V111.875C22.0169 108.492 24.7693 105.739 28.1527 105.739H90.9139C94.2973 105.739 97.0497 108.492 97.0497 111.875V115.27H70.0366C68.7412 115.27 67.6907 116.32 67.6907 117.616C67.6907 118.911 68.7412 119.962 70.0366 119.962H99.3953C100.691 119.962 101.741 118.911 101.741 117.616V111.875C101.741 105.905 96.8838 101.047 90.9136 101.047H67.6274V45.1739H94.6672L84.8313 75.2448H79.6184C78.323 75.2448 77.2726 76.2953 77.2726 77.5907V82.9551C77.2726 88.1092 81.4658 92.3022 86.6198 92.3022H109.9C115.054 92.3022 119.247 88.1092 119.247 82.9551V77.5907C119.247 76.2953 118.197 75.245 116.901 75.245ZM91.2385 33.9272C91.2385 30.4723 94.0468 27.5278 97.5031 27.3795C101.218 27.2153 104.4 30.3078 104.346 34.0265C104.294 37.5548 101.325 40.4822 97.7935 40.4822C94.1793 40.4822 91.2385 37.5417 91.2385 33.9272ZM55.0288 12.0255L59.5884 6.16582L64.1478 12.0255C65.156 13.3211 65.3573 15.0533 64.6737 16.5459L63.7762 18.5047H55.4004L54.5031 16.5462C53.8193 15.053 54.0206 13.3209 55.0288 12.0255ZM14.9076 34.9465C14.8701 34.7044 14.8457 34.4588 14.8351 34.2139C14.6819 30.675 17.4972 27.563 21.0422 27.3809C24.7339 27.1972 27.9381 30.2243 27.9381 33.9272C27.9381 37.5417 24.9975 40.4822 21.3831 40.4822C18.1151 40.4822 15.3986 38.0787 14.9076 34.9465ZM38.0353 82.9554C38.0353 85.5222 35.947 87.6107 33.3799 87.6107H10.0998C7.53274 87.6107 5.44446 85.5224 5.44446 82.9554V79.9367H38.0353V82.9554ZM13.2479 75.245L21.4246 50.2461L29.9142 75.2448H13.2479V75.245ZM30.5133 40.4822C31.6848 38.8549 32.4318 36.9041 32.5932 34.7912C34.2789 35.2576 36.0324 35.2311 37.7104 34.7464L51.5492 30.7533V40.4825H30.5133V40.4822ZM56.2409 101.047V23.1959H62.9359V101.047H56.2409ZM67.6276 30.7533L81.466 34.7462C82.3035 34.988 83.0835 35.1142 83.8498 35.1323C84.7856 35.1548 85.7045 35.0326 86.5832 34.7893C86.7444 36.9032 87.4913 38.8547 88.6633 40.4825H67.6276V30.7533ZM97.9446 50.2461L106.434 75.2448H89.7677L97.9446 50.2461ZM114.556 82.9554C114.556 85.5222 112.467 87.6107 109.9 87.6107H86.62C84.053 87.6107 81.9645 85.5224 81.9645 82.9554V79.9367H114.556V82.9554Z" fill="black"/>
<path d="M61.7546 116.764C60.9671 114.871 58.206 114.875 57.4218 116.764C57.0397 117.684 57.2984 118.787 58.0559 119.437C58.8164 120.089 59.9333 120.184 60.7942 119.672C61.7785 119.087 62.1949 117.82 61.7546 116.764Z" fill="black"/>
</svg>
