<svg width="120" height="120" viewBox="0 0 120 120" fill="none" xmlns="http://www.w3.org/2000/svg">
<g clip-path="url(#clip0)">
<path d="M120 40.8679C119.997 39.0461 119.461 37.1985 118.277 35.6756L108.769 23.5096C107.176 21.4875 104.753 20.4578 102.331 20.4539C100.89 20.4539 99.4226 20.8232 98.126 21.6318L88.8551 27.3998C87.8801 28.0216 86.2085 28.4484 84.5939 28.4374C83.3395 28.4428 82.1273 28.1917 81.327 27.7964L72.2482 23.3988C70.7838 22.6938 69.1514 22.4048 67.5098 22.402C65.1523 22.413 62.7647 22.9924 60.8461 24.322L59.7867 25.0652C58.9399 24.6426 57.6459 23.9988 56.1802 23.2694C54.4223 22.4076 52.3554 22.06 50.2676 22.0532C48.3816 22.0586 46.496 22.3492 44.8404 23.0486L38.6566 25.6872C37.6502 26.1236 36.0495 26.4086 34.4595 26.4016C32.8695 26.4084 31.2715 26.1234 30.2651 25.6872L24.0757 23.0472C22.9467 22.5658 21.7399 22.36 20.5439 22.3586C19.1667 22.36 17.7977 22.6314 16.5253 23.1468C15.2545 23.665 14.0749 24.43 13.1356 25.4798L1.8668 38.1C0.617821 39.4947 -0.00257012 41.2511 8.00203e-06 42.9801C-0.00257012 45.0419 0.879617 47.1103 2.58118 48.5599L13.0929 57.528L8.10634 62.73C6.73173 64.1646 6.04735 66.0246 6.04735 67.8637C6.04477 69.8205 6.82196 71.7963 8.36134 73.251L9.3729 74.2122C10.3261 75.1164 11.4715 75.6916 12.6701 75.9984C12.0689 77.1042 11.7403 78.3166 11.7429 79.5314C11.7403 81.4896 12.5175 83.4639 14.0541 84.9203L14.0515 84.9189L15.0661 85.8843C16.5103 87.2533 18.3825 87.9351 20.227 87.9339C21.2184 87.9353 22.211 87.7361 23.1438 87.3461C23.4713 88.6743 24.1474 89.9369 25.211 90.9459L26.2256 91.9113C27.6699 93.2803 29.539 93.9621 31.3866 93.9609C32.8308 93.9623 34.2816 93.5367 35.5306 92.7105C35.8959 93.8859 36.522 94.9999 37.4749 95.9053L38.4895 96.8707C39.9307 98.2396 41.8029 98.9214 43.6479 98.9203C45.6127 98.9217 47.5969 98.1499 49.0624 96.6199L53.4696 92.0177L59.4572 97.5592C60.8904 98.8886 62.73 99.55 64.5459 99.5461C66.5409 99.5503 68.5535 98.751 70.0221 97.1789L70.9779 96.1549C71.8029 95.2687 72.3415 94.2199 72.6539 93.1251L74.9733 95.2659C76.4091 96.5899 78.2461 97.2485 80.0595 97.2471C82.057 97.2485 84.0752 96.4492 85.5452 94.8759L86.4956 93.8531C87.5932 92.6805 88.211 91.2281 88.4018 89.7447C89.014 89.9015 89.6344 90.0079 90.2602 90.0079C92.2577 90.0079 94.2703 89.2101 95.7417 87.6382L96.6949 86.6153C98.0271 85.1875 98.6899 83.3564 98.6871 81.551C98.6871 80.9906 98.6067 80.433 98.4825 79.882C100.139 79.6624 101.746 78.9234 102.967 77.6116L103.923 76.5876C105.255 75.1598 105.915 73.3286 105.915 71.5218C105.918 69.5339 105.116 67.5278 103.534 66.0663L101.747 64.4151L117.881 46.5768C119.329 44.9709 119.997 42.9037 120 40.8679ZM14.5345 72.2027C13.6798 72.2001 12.8438 71.8945 12.1906 71.2755L11.1774 70.3143C10.4763 69.6515 10.1302 68.7696 10.1274 67.8639C10.1302 67.0146 10.4341 66.1853 11.0602 65.5321L21.2733 54.8744C21.9387 54.1802 22.8265 53.8326 23.7373 53.8314C24.5895 53.8328 25.4227 54.1396 26.0813 54.76L27.0902 55.7226C27.0902 55.7226 28.1349 57.2674 28.1374 58.1742C28.1349 58.8532 27.9302 59.5146 27.5334 60.0874C27.4995 60.1214 16.5103 71.5741 16.5103 71.5741C15.9267 71.9871 15.2367 72.1996 14.5345 72.2027ZM22.6913 82.8332C22.0273 83.5246 21.1409 83.8708 20.2301 83.8736C19.3753 83.8722 18.5419 83.5654 17.8861 82.9464L16.8715 81.9822L16.8689 81.9808C16.1735 81.3208 15.8243 80.436 15.8243 79.5304C15.8243 78.681 16.1311 77.8518 16.7541 77.1986C16.7541 77.1986 30.368 63.0271 30.4826 62.8905C31.1332 62.2647 31.9716 61.9415 32.8374 61.9401C33.6921 61.9415 34.5256 62.2469 35.1813 62.8673L36.1959 63.8327C36.8939 64.4927 37.2406 65.3763 37.2431 66.2831C37.2403 67.1325 36.9338 67.9628 36.3103 68.616L22.6913 82.8332ZM33.8491 88.8586C33.1866 89.5516 32.3004 89.8982 31.3894 89.9008C30.5346 89.8994 29.7012 89.5926 29.0454 88.9722L28.028 88.008C27.33 87.3466 26.9808 86.4632 26.9808 85.5576C26.9808 84.7996 27.2386 84.0644 27.732 83.4522L37.2129 73.5567C37.8525 72.9799 38.6541 72.6759 39.4847 72.6759C40.3395 72.6773 41.1729 72.9827 41.8287 73.6031L42.8461 74.5685C43.5415 75.2285 43.8907 76.1121 43.8933 77.0175C43.8905 77.8685 43.5811 78.6989 42.9605 79.3504L33.8491 88.8586ZM51.8637 87.8142L46.1107 93.8184C45.4479 94.511 44.5603 94.8576 43.6495 94.8602C42.7948 94.8588 41.9613 94.552 41.3056 93.9316L40.2909 92.9674C39.5956 92.3074 39.2463 91.4226 39.2438 90.517C39.2463 89.666 39.5531 88.8356 40.1766 88.1852L45.927 82.1812C46.5924 81.4886 47.4802 81.1408 48.3909 81.1394C49.2431 81.1408 50.0791 81.4462 50.7349 82.068L51.7523 83.0322C52.4477 83.6922 52.7941 84.5758 52.797 85.4812C52.7937 86.332 52.4869 87.1624 51.8637 87.8142ZM101.841 71.5272C101.84 72.3611 101.541 73.1779 100.936 73.8269L99.9827 74.8497C99.3173 75.5615 98.4145 75.9215 97.4902 75.9229C96.6516 75.9215 95.8306 75.6269 95.179 75.0246L79.1161 60.1696L76.3385 63.1436L93.5318 79.0715C94.2478 79.7343 94.6076 80.6343 94.613 81.5533C94.6076 82.3905 94.3116 83.2059 93.7076 83.8551L92.7572 84.8779C92.0918 85.5897 91.189 85.9483 90.2646 85.9511C89.426 85.9485 88.6024 85.6525 87.956 85.0539L71.8889 70.1992L69.1141 73.1732L83.3731 86.3592C84.0602 87.0178 84.4123 87.8946 84.4123 88.7943C84.4123 89.6289 84.1163 90.4455 83.5123 91.0933L82.5591 92.1161C81.8963 92.8279 80.9909 93.1879 80.0639 93.1905C79.2225 93.1879 78.4017 92.8919 77.7527 92.2933L63.5224 79.1552H63.5199L63.5173 79.1526L60.7479 82.132L60.7507 82.1346L60.8039 82.185L67.9313 88.7629C68.5627 89.4119 68.8899 90.2437 68.8924 91.1041C68.8899 91.9345 68.5964 92.7471 67.9924 93.3951L67.0392 94.4191C66.3738 95.1309 65.4738 95.4881 64.552 95.4909C63.7134 95.4883 62.8924 95.1937 62.2434 94.5925L56.0379 88.8464C56.5779 87.787 56.8793 86.6374 56.8793 85.4838C56.8819 83.527 56.1047 81.554 54.5681 80.0964L53.5507 79.1311C52.1095 77.7632 50.2399 77.0803 48.3952 77.0828C48.252 77.0828 48.1076 77.1157 47.9672 77.1239C47.9672 77.0899 47.9752 77.0542 47.9752 77.0203C47.9777 75.0635 45.664 71.6301 45.664 71.6301L44.6494 70.6675C43.5708 69.6447 42.2548 69.0067 40.886 68.7503C41.1682 67.9514 41.3278 67.1196 41.3278 66.2864C41.3278 64.3296 40.5532 62.355 39.0166 60.899L38.002 59.9336C36.5578 58.5646 34.6887 57.8814 32.8437 57.8828C32.6283 57.8828 32.4157 57.9264 32.2015 57.9457C32.1429 56.0667 31.3861 54.1891 29.9135 52.7901V52.7887L28.9017 51.8275C27.4575 50.4571 25.5884 49.7739 23.7434 49.7753C21.7756 49.7739 19.7944 50.5457 18.3288 52.0757L15.9181 54.5915L5.23852 45.4828C4.47095 44.8256 4.08774 43.9174 4.08493 42.9848C4.08751 42.2034 4.35352 41.4384 4.92071 40.8032L16.1892 28.1833C16.6364 27.6815 17.2978 27.2275 18.0724 26.9123C18.847 26.5973 19.7264 26.4243 20.5486 26.4255C21.2646 26.4255 21.9366 26.5551 22.474 26.7869L28.6606 29.4267C30.4045 30.1617 32.4293 30.4631 34.4641 30.4696C36.5013 30.4628 38.5235 30.1614 40.2677 29.4267L46.4515 26.7881C47.4047 26.3723 48.8431 26.1145 50.2734 26.1199C51.8552 26.1103 53.4396 26.4377 54.3586 26.9067C54.9422 27.1971 55.4958 27.4727 56.0098 27.7303L49.7032 32.1635C47.6768 33.5885 46.5846 35.8546 46.5874 38.1414C46.5849 39.655 47.0646 41.1958 48.041 42.5034L48.0384 42.5006L48.8714 43.62C50.4532 45.7228 52.9198 46.8039 55.3852 46.8093C56.7774 46.8093 58.1956 46.4575 59.4595 45.6993L63.2311 43.4343C64.0003 42.9639 65.1619 42.6667 66.3631 42.6721C67.7745 42.6639 69.1966 43.0814 70.0516 43.7097L80.4858 51.1903C82.808 52.8539 86.5903 55.9396 88.6863 57.8814L100.763 69.0478C101.479 69.7108 101.839 70.6068 101.841 71.5272ZM114.853 43.8623L98.7638 61.6528L91.459 54.9004C89.171 52.7882 85.398 49.7081 82.8673 47.8903L72.4359 40.4097C70.6674 39.1567 68.502 38.6151 66.3612 38.6071C64.5394 38.6125 62.704 39.0096 61.1196 39.9529L57.3509 42.2179C56.7727 42.5655 56.0911 42.7429 55.3831 42.7443C54.1174 42.7485 52.8509 42.1579 52.1447 41.1965L51.3143 40.0785L51.3115 40.0757C50.8697 39.48 50.6639 38.8117 50.6609 38.1353C50.6663 37.1125 51.1381 36.12 52.0519 35.475L63.2032 27.6398C64.1674 26.9418 65.8828 26.4522 67.5122 26.4644C68.644 26.459 69.7252 26.6866 70.4656 27.0522L79.5441 31.4498C81.0919 32.193 82.8387 32.497 84.596 32.5012C86.854 32.4902 89.1366 31.9994 91.0172 30.8444L100.291 25.0753C100.883 24.7059 101.593 24.5149 102.334 24.5149C103.586 24.5123 104.84 25.0795 105.55 26.0053L115.058 38.1712C115.607 38.868 115.924 39.851 115.924 40.8698C115.926 42.0091 115.523 43.1301 114.853 43.8623Z" fill="black"/>
</g>
<defs>
<clipPath id="clip0">
<rect width="120" height="120" fill="white"/>
</clipPath>
</defs>
</svg>
