<svg width="120" height="120" viewBox="0 0 120 120" fill="none" xmlns="http://www.w3.org/2000/svg">
<g clip-path="url(#clip0)">
<path d="M114.966 105.819H114.932V103.693C114.932 101.216 112.917 99.2023 110.441 99.2023H109.923L109.287 93.0627C109.192 92.1545 108.428 91.4651 107.515 91.4651H107.065L105.371 46.2243L106.769 40.1003H107.46C108.444 40.1003 109.242 39.3029 109.242 38.3196V36.6918L109.841 36.9381C110.412 37.1743 111.011 37.2914 111.61 37.2914C112.215 37.2914 112.821 37.1715 113.397 36.9316C114.542 36.4537 115.433 35.5583 115.903 34.4121L118.246 28.7276C119.219 26.3582 118.084 23.6391 115.716 22.6668L62.5673 0.782892C60.7875 0.0513837 58.8246 0.0513837 57.0402 0.783807L28.7787 12.4202C27.8687 12.7946 27.4347 13.8347 27.8092 14.7447C28.1846 15.6547 29.2246 16.0878 30.1346 15.7133L58.3943 4.0788C59.2906 3.71075 60.3187 3.71075 61.2123 4.07788L114.361 25.9609C114.914 26.1879 115.178 26.8215 114.952 27.3726L112.61 33.0571C112.5 33.3245 112.293 33.5323 112.026 33.644C111.76 33.7548 111.466 33.7557 111.197 33.6449L60.4835 12.7663C60.0486 12.5877 59.5616 12.5877 59.1276 12.7663L8.41005 33.6449C7.8589 33.8729 7.22536 33.6074 6.99831 33.0562L4.65821 27.3726C4.54835 27.1053 4.54835 26.8114 4.66004 26.5441C4.77082 26.2776 4.97956 26.0707 5.24781 25.9599L23.5447 18.4251C24.4547 18.0507 24.8877 17.0097 24.5133 16.1006C24.1388 15.1906 23.0979 14.7575 22.1888 15.132L3.89283 22.6659C2.74476 23.1374 1.85028 24.0282 1.37238 25.1735C0.894472 26.3197 0.891726 27.5823 1.36505 28.7294L3.70423 34.413C4.6811 36.7815 7.40114 37.914 9.76687 36.9381L10.3665 36.6918V38.3196C10.3665 39.3029 11.164 40.1003 12.1472 40.1003H12.7625L14.1605 46.2206L12.4668 91.4651H12.0163C11.1035 91.4651 10.3382 92.1545 10.2448 93.0627L9.60848 99.2023H9.09029C6.61378 99.2023 4.59962 101.216 4.59962 103.693V105.819H4.56483C1.91895 105.819 -0.234375 107.972 -0.234375 110.618V115.024C-0.234375 117.671 1.91895 119.824 4.56483 119.824H78.904C79.8882 119.824 80.6856 119.026 80.6856 118.043C80.6856 117.06 79.8882 116.262 78.904 116.262H4.56483C3.88276 116.262 3.32795 115.707 3.32795 115.024V110.618C3.32795 109.936 3.88276 109.381 4.56483 109.381H114.967C115.649 109.381 116.204 109.936 116.204 110.618V115.024C116.204 115.707 115.649 116.262 114.967 116.262H86.0286C85.0453 116.262 84.2479 117.06 84.2479 118.043C84.2479 119.026 85.0453 119.824 86.0286 119.824H114.966C117.613 119.824 119.766 117.671 119.766 115.024V110.618C119.766 107.972 117.613 105.819 114.966 105.819ZM75.3371 99.2023L74.7008 93.0627C74.6074 92.1545 73.842 91.4651 72.9292 91.4651H72.4788L70.786 46.2243L72.1831 40.1003H81.9334L83.3315 46.2252L81.6386 91.4651H81.1873C80.2745 91.4651 79.51 92.1545 79.4157 93.0627L78.7804 99.2023H75.3371ZM67.577 44.2751H51.9544L51.0014 40.1003H68.5292L67.577 44.2751ZM52.2502 47.8374H67.2813L68.9137 91.4651H50.6178L52.2502 47.8374ZM48.2081 95.0265H71.3234L71.7564 99.2023H47.7751L48.2081 95.0265ZM82.794 95.0265H105.909L106.342 99.2023H82.361L82.794 95.0265ZM85.2037 91.4651L86.8361 47.8374H101.867L103.5 91.4651H85.2037ZM102.162 44.2751H86.5404L85.5873 40.1003H103.115L102.162 44.2751ZM59.8051 16.3396L105.68 35.2251V36.538H13.9289V35.2251L59.8051 16.3396ZM47.3475 40.1003L48.7455 46.2252L47.0527 91.4651H46.6013C45.6886 91.4651 44.9241 92.1545 44.8298 93.0627L44.1935 99.2023H40.7511L40.1148 93.0627C40.0205 92.1545 39.2561 91.4651 38.3433 91.4651H37.8928L36.1991 46.2197L37.5962 40.1003H47.3475ZM16.4164 40.1003H33.9432L32.9902 44.2751H17.3694L16.4164 40.1003ZM17.6642 47.8374H32.6954L34.3278 91.4651H16.0318L17.6642 47.8374ZM13.6222 95.0265H36.7374L37.1705 99.2023H13.1891L13.6222 95.0265ZM8.16194 105.819V103.693C8.16194 103.181 8.57851 102.765 9.09029 102.765H110.441C110.953 102.765 111.37 103.181 111.37 103.693V105.819H8.16194Z" fill="black"/>
<path d="M59.8042 35.5741C64.4972 35.5741 68.3159 31.7555 68.3159 27.0625C68.3159 22.3685 64.4972 18.5508 59.8042 18.5508C55.1112 18.5508 51.2925 22.3685 51.2925 27.0625C51.2925 31.7564 55.1112 35.5741 59.8042 35.5741ZM59.8042 22.1122C62.5334 22.1122 64.7545 24.3333 64.7545 27.0625C64.7545 29.7917 62.5334 32.0118 59.8042 32.0118C57.075 32.0118 54.8548 29.7917 54.8548 27.0625C54.8548 24.3333 57.075 22.1122 59.8042 22.1122Z" fill="black"/>
</g>
<defs>
<clipPath id="clip0">
<rect width="120" height="120" fill="white"/>
</clipPath>
</defs>
</svg>
