<svg width="120" height="120" viewBox="0 0 120 120" fill="none" xmlns="http://www.w3.org/2000/svg">
<path d="M61.5666 65.4909C61.3446 65.4428 61.1168 65.4342 60.8919 65.4678C58.6381 65.2054 56.9379 63.2986 56.9341 61.0304C56.9341 59.9434 56.0528 59.062 54.9657 59.062C53.8787 59.062 52.9974 59.9434 52.9974 61.0304C53.0032 64.8181 55.5366 68.1358 59.1888 69.1383V71.1066C59.1888 72.1936 60.0702 73.075 61.1572 73.075C62.2442 73.075 63.1255 72.1936 63.1255 71.1066V69.2575C67.341 68.3752 70.206 64.449 69.7629 60.1654C69.3189 55.8817 65.71 52.6265 61.4032 52.6255C58.9351 52.6255 56.9341 50.6245 56.9341 48.1563C56.9341 45.6882 58.9351 43.6872 61.4032 43.6872C63.8714 43.6872 65.8724 45.6882 65.8724 48.1563C65.8724 49.2434 66.7537 50.1247 67.8407 50.1247C68.9277 50.1247 69.8091 49.2434 69.8091 48.1563C69.8033 44.1793 67.0171 40.7491 63.1255 39.9283V38.1368C63.1255 37.0498 62.2442 36.1685 61.1572 36.1685C60.0702 36.1685 59.1888 37.0498 59.1888 38.1368V40.0484C55.1272 41.1576 52.513 45.101 53.0724 49.2741C53.6317 53.4472 57.1926 56.5622 61.4032 56.5612C63.8387 56.5612 65.8253 58.5113 65.8695 60.9458C65.9147 63.3803 64.0001 65.4024 61.5666 65.4909Z" fill="black"/>
<path d="M32.8602 54.7446C32.8602 70.5087 45.6391 83.2876 61.4032 83.2876C77.1672 83.2876 89.9461 70.5087 89.9461 54.7446C89.9461 38.9805 77.1672 26.2017 61.4032 26.2017C45.6468 26.219 32.8785 38.9882 32.8602 54.7446ZM61.4032 30.1384C74.9932 30.1384 86.0094 41.1546 86.0094 54.7446C86.0094 68.3347 74.9932 79.3509 61.4032 79.3509C47.8131 79.3509 36.7969 68.3347 36.7969 54.7446C36.8123 41.1613 47.8198 30.1537 61.4032 30.1384Z" fill="black"/>
<path d="M99.6495 88.1403L84.2305 95.4255C82.1016 91.4657 78.0179 88.9457 73.5238 88.8188L59.2898 88.4276C57.036 88.3633 54.8245 87.7924 52.8206 86.7572L51.3722 86.0066C43.9563 82.141 35.117 82.1507 27.7088 86.0316L27.7991 82.7504C27.8289 81.6634 26.9726 80.758 25.8856 80.7282L10.2772 80.2986C9.19017 80.2688 8.28577 81.1252 8.25598 82.2122L7.31313 116.464C7.28334 117.551 8.13968 118.456 9.2267 118.486L24.8351 118.916H24.8889C25.9557 118.916 26.8284 118.067 26.8572 117.001L26.9024 115.363L30.9573 113.192C32.5489 112.335 34.4096 112.131 36.1483 112.624L60.3624 119.419C60.4047 119.432 60.4469 119.442 60.4902 119.451C62.2404 119.817 64.0242 120.001 65.8118 120C69.5986 120.002 73.3412 119.186 76.7829 117.606C76.8675 117.567 76.9492 117.522 77.027 117.471L112.135 94.7623C113.01 94.1962 113.292 93.0477 112.78 92.1404C110.174 87.5156 104.393 85.7538 99.6495 88.1403ZM11.3027 114.605L12.1369 84.2882L23.8096 84.6092L22.9753 114.927L11.3027 114.605ZM75.0096 114.09C70.7337 116.02 65.9579 116.553 61.3619 115.614L37.2132 108.835C34.4951 108.067 31.5859 108.385 29.0995 109.722L27.0274 110.832L27.5819 90.6747C34.1482 86.3074 42.5694 85.8586 49.5624 89.5022L51.0108 90.2528C53.5424 91.5599 56.3344 92.2807 59.1821 92.3634L73.4171 92.7545C77.4153 92.8699 80.8109 95.7167 81.622 99.6342L60.4191 99.0488C59.3321 99.019 58.4277 99.8764 58.3969 100.962C58.3671 102.049 59.2244 102.955 60.3105 102.985L83.7096 103.629H83.7644C84.8302 103.628 85.7019 102.779 85.7308 101.714C85.7548 100.859 85.6914 100.002 85.5405 99.1603L101.355 91.6877C101.371 91.681 101.386 91.6733 101.402 91.6656C103.645 90.5305 106.357 90.9102 108.202 92.6181L75.0096 114.09Z" fill="black"/>
<path d="M63.3715 20.6676V1.96835C63.3715 0.881335 62.4902 0 61.4032 0C60.3162 0 59.4348 0.881335 59.4348 1.96835V20.6676C59.4348 21.7546 60.3162 22.636 61.4032 22.636C62.4902 22.636 63.3715 21.7546 63.3715 20.6676Z" fill="black"/>
<path d="M78.1342 20.6677V11.8101C78.1342 10.7231 77.2529 9.8418 76.1659 9.8418C75.0788 9.8418 74.1975 10.7231 74.1975 11.8101V20.6677C74.1975 21.7547 75.0788 22.6361 76.1659 22.6361C77.2529 22.6361 78.1342 21.7547 78.1342 20.6677Z" fill="black"/>
<path d="M48.6089 20.6677V11.8101C48.6089 10.7231 47.7276 9.8418 46.6406 9.8418C45.5536 9.8418 44.6722 10.7231 44.6722 11.8101V20.6677C44.6722 21.7547 45.5536 22.6361 46.6406 22.6361C47.7276 22.6361 48.6089 21.7547 48.6089 20.6677Z" fill="black"/>
</svg>
