<svg width="61" height="61" viewBox="0 0 61 61" fill="none" xmlns="http://www.w3.org/2000/svg">
<g clip-path="url(#clip0)">
<path d="M49.7569 0H11.2431C9.26457 0 7.65489 1.60968 7.65489 3.58824V57.4118C7.65489 59.3903 9.26457 61 11.2431 61H49.7569C51.7354 61 53.3451 59.3903 53.3451 57.4118V3.58824C53.3451 1.60968 51.7354 0 49.7569 0ZM49.7569 57.4118H11.2431V3.58824H49.7569C49.7591 58.5895 49.7688 57.4118 49.7569 57.4118Z" fill="#0267FF"/>
<path d="M37.198 23.9216C32.2858 23.9216 28.3244 28.12 28.7375 33.1189C28.6911 33.3686 28.7059 32.3272 28.7059 49.6373C28.7059 50.911 29.9998 51.7803 31.179 51.298L37.198 48.8371L43.2171 51.2981C44.3927 51.7785 45.6902 50.9156 45.6902 49.6373V32.4138C45.6902 27.7313 41.8806 23.9216 37.198 23.9216ZM37.198 27.5099C39.902 27.5099 42.102 29.7098 42.102 32.4138C42.102 35.1178 39.902 37.3177 37.198 37.3177C34.4941 37.3177 32.2941 35.1178 32.2941 32.4138C32.2941 29.7098 34.4941 27.5099 37.198 27.5099ZM37.8771 45.2381C37.4418 45.0603 36.9543 45.0603 36.519 45.2381L32.2941 46.9655V39.3404C35.2339 41.4278 39.1593 41.4299 42.102 39.3404V46.9655L37.8771 45.2381Z" fill="#0267FF"/>
<path d="M43.8961 8.61182H17.1039C16.1131 8.61182 15.3098 9.4151 15.3098 10.4059C15.3098 11.3968 16.1131 12.2001 17.1039 12.2001H43.8961C44.8869 12.2001 45.6902 11.3968 45.6902 10.4059C45.6902 9.4151 44.8869 8.61182 43.8961 8.61182Z" fill="#0267FF"/>
<path d="M43.8961 16.2666H17.1039C16.1131 16.2666 15.3098 17.0699 15.3098 18.0607C15.3098 19.0516 16.1131 19.8548 17.1039 19.8548H43.8961C44.8869 19.8548 45.6902 19.0516 45.6902 18.0607C45.6902 17.0699 44.8869 16.2666 43.8961 16.2666Z" fill="#0267FF"/>
<path d="M23.2672 24.1606H16.6817C15.924 24.1606 15.3097 24.9639 15.3097 25.9548C15.3097 26.9456 15.924 27.7489 16.6817 27.7489H23.2672C24.0249 27.7489 24.6392 26.9456 24.6392 25.9548C24.6392 24.9639 24.0249 24.1606 23.2672 24.1606Z" fill="#0267FF"/>
<path d="M22.8451 31.5764H17.1039C16.1131 31.5764 15.3098 32.3797 15.3098 33.3705C15.3098 34.3614 16.1131 35.1647 17.1039 35.1647H22.8451C23.8359 35.1647 24.6392 34.3614 24.6392 33.3705C24.6392 32.3797 23.8359 31.5764 22.8451 31.5764Z" fill="#0267FF"/>
<path d="M22.8451 39.2314H17.1039C16.1131 39.2314 15.3098 40.0347 15.3098 41.0256C15.3098 42.0164 16.1131 42.8197 17.1039 42.8197H22.8451C23.8359 42.8197 24.6392 42.0164 24.6392 41.0256C24.6392 40.0347 23.8359 39.2314 22.8451 39.2314Z" fill="#0267FF"/>
<path d="M22.8451 46.8862H17.1039C16.1131 46.8862 15.3098 47.6895 15.3098 48.6803C15.3098 49.6712 16.1131 50.4745 17.1039 50.4745H22.8451C23.8359 50.4745 24.6392 49.6712 24.6392 48.6803C24.6392 47.6895 23.8359 46.8862 22.8451 46.8862Z" fill="#0267FF"/>
</g>
<defs>
<clipPath id="clip0">
<rect width="61" height="61" fill="white"/>
</clipPath>
</defs>
</svg>
