<svg width="61" height="62" viewBox="0 0 61 62" fill="none" xmlns="http://www.w3.org/2000/svg">
<g clip-path="url(#clip0)">
<path d="M20.9505 13.1172C21.6099 13.1172 22.1443 12.5824 22.1443 11.9235C22.1443 11.2632 21.6099 10.7297 20.9505 10.7297C20.2916 10.7297 19.7573 11.2632 19.7573 11.9235C19.7573 12.5824 20.2916 13.1172 20.9505 13.1172Z" fill="#0267FF"/>
<path d="M52.6994 21.6589C53.5732 20.1271 53.2342 18.1882 51.8931 17.0476L47.8503 13.6147C47.6264 13.4244 47.4744 13.1568 47.4222 12.8616L46.5068 7.67443C46.2009 5.92579 44.7013 4.65744 42.941 4.65744H37.6639C37.3775 4.65744 37.0978 4.55392 36.8856 4.37393L32.8427 0.867791C32.8395 0.864994 32.8357 0.862196 32.8325 0.858932C31.4811 -0.286311 29.5194 -0.286311 28.1685 0.858932C28.1648 0.862196 28.1615 0.864994 28.1583 0.867791L24.1243 4.366C23.9032 4.55392 23.6239 4.65744 23.3381 4.65744H18.0595C16.2997 4.65744 14.8 5.92626 14.4941 7.67256L13.5769 12.8644C13.5256 13.1582 13.3746 13.4244 13.1507 13.6142L9.10694 17.0481C7.76631 18.1882 7.42778 20.1271 8.30163 21.6584L10.9409 26.2855C11.0887 26.5448 11.1419 26.8493 11.0906 27.1435L10.1738 32.4044C9.87028 34.1498 10.8476 35.8574 12.497 36.464L17.4566 38.2919C17.5554 38.3283 17.6487 38.3773 17.734 38.4374L8.54038 54.5594C8.01625 55.4785 8.86353 56.5776 9.88613 56.3039L15.2556 54.8653L16.6942 60.2343C16.9688 61.2597 18.3537 61.4467 18.8839 60.5169L28.3718 43.8806L30.0827 43.2501C30.3517 43.1508 30.6488 43.1513 30.9174 43.2497L32.7574 43.9277L42.9378 60.5491C43.4843 61.4407 44.8375 61.2485 45.1089 60.2343L46.5479 54.8653L51.9169 56.3039C52.954 56.5827 53.8068 55.4463 53.244 54.5272L43.3532 38.3819C43.4143 38.346 43.4782 38.3157 43.5449 38.2915L48.5026 36.464C50.1552 35.8569 51.1326 34.1488 50.8271 32.4039L49.9104 27.1431C49.8591 26.8493 49.9123 26.5443 50.0601 26.2851L52.6994 21.6589ZM18.2488 56.8121L17.2528 53.0943C17.0821 52.4573 16.4274 52.0796 15.7905 52.2503L12.0311 53.2575L19.1772 40.7251L20.7422 43.4679C21.582 44.9419 23.3003 45.6246 24.8988 45.1513L18.2488 56.8121ZM49.6455 53.2239L46.0126 52.2503C45.3751 52.0796 44.7209 52.4578 44.5502 53.0943L43.522 56.9324L36.3451 45.2151C36.6044 45.2725 36.8651 45.3009 37.1239 45.3009C38.3885 45.3005 39.5967 44.6299 40.2584 43.4684L41.903 40.5852L49.6455 53.2239ZM47.9864 25.1025C47.564 25.843 47.4119 26.7136 47.5584 27.5534L48.4751 32.8147C48.5819 33.4223 48.2466 34.015 47.6782 34.2239L42.7205 36.0509C41.9776 36.3241 41.3453 36.8399 40.9191 37.509C40.8702 37.5724 40.8287 37.6405 40.7942 37.7119L38.1847 42.2863C37.8854 42.8114 37.2619 43.0426 36.7028 42.8375C36.5461 42.7796 31.8686 41.0562 31.7418 41.0096C30.9416 40.7158 30.0598 40.7153 29.2583 41.01C29.1622 41.0445 27.0466 41.8247 24.2991 42.8375C23.7391 43.0436 23.1156 42.8114 22.8163 42.2858L20.3607 37.9818C20.3043 37.7571 20.1835 37.5486 20.0054 37.3868C19.5815 36.7764 18.9791 36.3078 18.2815 36.0513L13.3223 34.2234C12.7553 34.015 12.42 33.4219 12.5259 32.8138L13.4426 27.5534C13.5895 26.7136 13.4375 25.843 13.015 25.1025L10.3757 20.4754C10.0699 19.9405 10.1874 19.2639 10.6532 18.8676L14.6965 15.4342C15.3447 14.8835 15.7825 14.1164 15.929 13.2771L16.8457 8.08617C16.9516 7.48278 17.4622 7.04445 18.06 7.04445H23.3385C24.19 7.04445 25.0182 6.73949 25.6794 6.17713L29.7166 2.67658C30.1718 2.29421 30.8297 2.29421 31.2848 2.67658L35.3309 6.18505C35.9828 6.73949 36.8115 7.04445 37.6639 7.04445H42.9415C43.5393 7.04445 44.0499 7.48278 44.1557 8.08757L45.0716 13.2766C45.2198 14.1183 45.6577 14.8844 46.3049 15.4342L50.3473 18.8667C50.8141 19.2635 50.9311 19.9401 50.6257 20.4754L47.9864 25.1025Z" fill="#0267FF"/>
<path d="M30.5005 7.13208C28.4455 7.13208 26.4478 7.52797 24.563 8.30903C23.954 8.5613 23.6649 9.25982 23.9172 9.86882C24.1699 10.4778 24.8685 10.7665 25.477 10.5146C27.0704 9.8539 28.7607 9.51909 30.5005 9.51909C37.7408 9.51909 43.6311 15.4094 43.6311 22.6497C43.6311 29.89 37.7408 35.7804 30.5005 35.7804C23.2602 35.7804 17.3698 29.89 17.3698 22.6497C17.3698 20.404 17.9467 18.1872 19.0378 16.2395C19.36 15.6645 19.1548 14.9366 18.5799 14.6144C18.0045 14.2922 17.277 14.4973 16.9548 15.0723C15.6646 17.3758 14.9824 19.996 14.9824 22.6502C14.9824 31.2069 21.9438 38.1683 30.5005 38.1683C39.0572 38.1683 46.0186 31.2069 46.0186 22.6502C46.0186 14.0931 39.0572 7.13208 30.5005 7.13208Z" fill="#0267FF"/>
<path d="M25.8123 24.1899L25.1137 28.2588C25.0368 28.7065 25.221 29.1593 25.5889 29.4265C25.9522 29.6909 26.439 29.731 26.8456 29.5174L30.5005 27.5962L34.1554 29.5174C34.5573 29.7286 35.0446 29.6937 35.4125 29.4265C35.78 29.1593 35.9642 28.707 35.8872 28.2588L35.1887 24.1899L38.1451 21.3081C38.4705 20.991 38.5876 20.5168 38.4472 20.0845C38.3064 19.6523 37.9329 19.3375 37.4834 19.2718L33.3976 18.6782L31.5711 14.9762C31.3697 14.5686 30.9547 14.3103 30.5005 14.3103C30.0458 14.3103 29.6308 14.5686 29.4298 14.9762L27.6033 18.6782L23.5176 19.2718C23.0676 19.3375 22.6941 19.6523 22.5537 20.0845C22.4134 20.5168 22.5304 20.991 22.8559 21.3081L25.8123 24.1899ZM28.5677 20.9505C28.9565 20.894 29.2928 20.6497 29.4667 20.2976L30.5005 18.2021L31.5347 20.2976C31.7082 20.6497 32.0444 20.894 32.4333 20.9505L34.7466 21.2867L33.0726 22.9183C32.7914 23.1925 32.6632 23.5874 32.7294 23.9749L33.1248 26.2785L31.0558 25.191C30.8819 25.0996 30.6912 25.0539 30.5005 25.0539C30.3098 25.0539 30.119 25.0996 29.9451 25.191L27.8761 26.2785L28.2715 23.9749C28.3382 23.5879 28.2095 23.1925 27.9283 22.9183L26.2543 21.2867L28.5677 20.9505Z" fill="#0267FF"/>
</g>
<defs>
<clipPath id="clip0">
<rect width="61" height="61.1193" fill="white"/>
</clipPath>
</defs>
</svg>
