<svg width="61" height="61" viewBox="0 0 61 61" fill="none" xmlns="http://www.w3.org/2000/svg">
<path d="M42.8907 26.2929L41.6583 25.0605L40.3105 26.4083L42.2168 28.3145C42.3955 28.4932 42.6379 28.5936 42.8907 28.5936C43.1434 28.5936 43.3858 28.4932 43.5645 28.3145L47.377 24.502L46.0293 23.1543L42.8907 26.2929Z" fill="#0267FF"/>
<path d="M42.8907 33.9179L41.6583 32.6855L40.3105 34.0333L42.2168 35.9395C42.3955 36.1182 42.6379 36.2186 42.8907 36.2186C43.1434 36.2186 43.3858 36.1182 43.5645 35.9395L47.377 32.127L46.0293 30.7793L42.8907 33.9179Z" fill="#0267FF"/>
<path d="M42.8907 42.4961L41.6583 41.2637L40.3105 42.6114L42.2168 44.5176C42.3955 44.6963 42.6379 44.7967 42.8907 44.7967C43.1434 44.7967 43.3858 44.6963 43.5645 44.5176L47.377 40.7051L46.0293 39.3574L42.8907 42.4961Z" fill="#0267FF"/>
<path d="M54.3281 20.0156H47.6562V10.4844C47.654 9.72672 47.352 9.00074 46.8163 8.46499C46.2805 7.92924 45.5545 7.62726 44.7969 7.625H35.2656V6.67188C35.2634 5.91422 34.9614 5.18824 34.4256 4.65249C33.8899 4.11674 33.1639 3.81476 32.4062 3.8125H30.5V2.85938C30.5 2.60659 30.3996 2.36416 30.2208 2.18541C30.0421 2.00667 29.7997 1.90625 29.5469 1.90625H21.9219C21.6691 1.90625 21.4267 2.00667 21.2479 2.18541C21.0692 2.36416 20.9688 2.60659 20.9688 2.85938V3.8125H19.0625C18.3048 3.81476 17.5789 4.11674 17.0431 4.65249C16.5074 5.18824 16.2054 5.91422 16.2031 6.67188V7.625H6.67188C5.91422 7.62726 5.18824 7.92924 4.65249 8.46499C4.11674 9.00074 3.81476 9.72672 3.8125 10.4844V56.2344C3.81476 56.992 4.11674 57.718 4.65249 58.2538C5.18824 58.7895 5.91422 59.0915 6.67188 59.0938H44.7969C45.5545 59.0915 46.2805 58.7895 46.8163 58.2538C47.352 57.718 47.654 56.992 47.6562 56.2344V48.6094H54.3281C55.0858 48.6071 55.8118 48.3051 56.3475 47.7694C56.8833 47.2336 57.1852 46.5077 57.1875 45.75V22.875C57.1852 22.1173 56.8833 21.3914 56.3475 20.8556C55.8118 20.3199 55.0858 20.0179 54.3281 20.0156ZM30.5 5.71875H32.4062C32.659 5.71875 32.9015 5.81917 33.0802 5.99791C33.259 6.17666 33.3594 6.41909 33.3594 6.67188V7.625H30.5V5.71875ZM30.5 9.53125H44.7969C45.0497 9.53125 45.2921 9.63167 45.4708 9.81041C45.6496 9.98916 45.75 10.2316 45.75 10.4844V20.0156H44.7969V11.4375C44.7969 11.1847 44.6965 10.9423 44.5177 10.7635C44.339 10.5848 44.0965 10.4844 43.8438 10.4844H30.5V9.53125ZM22.875 3.8125H28.5938V11.4375C28.5938 11.6903 28.4933 11.9327 28.3146 12.1115C28.1358 12.2902 27.8934 12.3906 27.6406 12.3906H23.8281C23.5753 12.3906 23.3329 12.2902 23.1542 12.1115C22.9754 11.9327 22.875 11.6903 22.875 11.4375V3.8125ZM21.1403 12.3906C21.3381 12.9461 21.7023 13.427 22.1832 13.7681C22.6642 14.1092 23.2385 14.2938 23.8281 14.2969H27.6406C28.2302 14.2938 28.8046 14.1092 29.2855 13.7681C29.7664 13.427 30.1306 12.9461 30.3284 12.3906H42.8906V20.0156H39.0781C38.3205 20.0179 37.5945 20.3199 37.0587 20.8556C36.523 21.3914 36.221 22.1173 36.2188 22.875V45.75C36.221 46.5077 36.523 47.2336 37.0587 47.7694C37.5945 48.3051 38.3205 48.6071 39.0781 48.6094H42.8906V54.3281H8.57812V12.3906H21.1403ZM18.1094 6.67188C18.1094 6.41909 18.2098 6.17666 18.3885 5.99791C18.5673 5.81917 18.8097 5.71875 19.0625 5.71875H20.9688V7.625H18.1094V6.67188ZM45.75 56.2344C45.75 56.4872 45.6496 56.7296 45.4708 56.9083C45.2921 57.0871 45.0497 57.1875 44.7969 57.1875H6.67188C6.41909 57.1875 6.17666 57.0871 5.99791 56.9083C5.81917 56.7296 5.71875 56.4872 5.71875 56.2344V10.4844C5.71875 10.2316 5.81917 9.98916 5.99791 9.81041C6.17666 9.63167 6.41909 9.53125 6.67188 9.53125H20.9688V10.4844H7.625C7.37222 10.4844 7.12978 10.5848 6.95104 10.7635C6.77229 10.9423 6.67188 11.1847 6.67188 11.4375V55.2812C6.67188 55.534 6.77229 55.7765 6.95104 55.9552C7.12978 56.134 7.37222 56.2344 7.625 56.2344H43.8438C44.0965 56.2344 44.339 56.134 44.5177 55.9552C44.6965 55.7765 44.7969 55.534 44.7969 55.2812V48.6094H45.75V56.2344ZM55.2812 45.75C55.2812 46.0028 55.1808 46.2452 55.0021 46.424C54.8233 46.6027 54.5809 46.7031 54.3281 46.7031H39.0781C38.8253 46.7031 38.5829 46.6027 38.4042 46.424C38.2254 46.2452 38.125 46.0028 38.125 45.75V22.875C38.125 22.6222 38.2254 22.3798 38.4042 22.201C38.5829 22.0223 38.8253 21.9219 39.0781 21.9219H54.3281C54.5809 21.9219 54.8233 22.0223 55.0021 22.201C55.1808 22.3798 55.2812 22.6222 55.2812 22.875V45.75Z" fill="#0267FF"/>
<path d="M47.6562 25.7344H53.375V27.6406H47.6562V25.7344Z" fill="#0267FF"/>
<path d="M47.6562 33.3594H53.375V35.2656H47.6562V33.3594Z" fill="#0267FF"/>
<path d="M47.6562 41.9375H53.375V43.8438H47.6562V41.9375Z" fill="#0267FF"/>
<path d="M24.7812 21.9219H30.5C30.7528 21.9219 30.9952 21.8215 31.174 21.6427C31.3527 21.464 31.4531 21.2215 31.4531 20.9688V20.0156H34.3125V18.1094H31.4531V17.1562C31.4531 16.9035 31.3527 16.661 31.174 16.4823C30.9952 16.3035 30.7528 16.2031 30.5 16.2031H24.7812C24.5285 16.2031 24.286 16.3035 24.1073 16.4823C23.9285 16.661 23.8281 16.9035 23.8281 17.1562V18.1094H18.1094V17.1562C18.1094 16.9035 18.009 16.661 17.8302 16.4823C17.6515 16.3035 17.409 16.2031 17.1562 16.2031H11.4375C11.1847 16.2031 10.9423 16.3035 10.7635 16.4823C10.5848 16.661 10.4844 16.9035 10.4844 17.1562V20.9688C10.4844 21.2215 10.5848 21.464 10.7635 21.6427C10.9423 21.8215 11.1847 21.9219 11.4375 21.9219H13.3438V25.7344H11.4375C11.1847 25.7344 10.9423 25.8348 10.7635 26.0135C10.5848 26.1923 10.4844 26.4347 10.4844 26.6875V30.5C10.4844 30.7528 10.5848 30.9952 10.7635 31.174C10.9423 31.3527 11.1847 31.4531 11.4375 31.4531H13.3438V35.2656H11.4375C11.1847 35.2656 10.9423 35.366 10.7635 35.5448C10.5848 35.7235 10.4844 35.966 10.4844 36.2188V40.0312C10.4844 40.284 10.5848 40.5265 10.7635 40.7052C10.9423 40.884 11.1847 40.9844 11.4375 40.9844H13.3438V44.7969H11.4375C11.1847 44.7969 10.9423 44.8973 10.7635 45.076C10.5848 45.2548 10.4844 45.4972 10.4844 45.75V49.5625C10.4844 49.8153 10.5848 50.0577 10.7635 50.2365C10.9423 50.4152 11.1847 50.5156 11.4375 50.5156H17.1562C17.409 50.5156 17.6515 50.4152 17.8302 50.2365C18.009 50.0577 18.1094 49.8153 18.1094 49.5625V48.6094H23.8281V49.5625C23.8281 49.8153 23.9285 50.0577 24.1073 50.2365C24.286 50.4152 24.5285 50.5156 24.7812 50.5156H30.5C30.7528 50.5156 30.9952 50.4152 31.174 50.2365C31.3527 50.0577 31.4531 49.8153 31.4531 49.5625V48.6094H34.3125V46.7031H31.4531V45.75C31.4531 45.4972 31.3527 45.2548 31.174 45.076C30.9952 44.8973 30.7528 44.7969 30.5 44.7969H24.7812C24.5285 44.7969 24.286 44.8973 24.1073 45.076C23.9285 45.2548 23.8281 45.4972 23.8281 45.75V46.7031H18.1094V45.75C18.1094 45.4972 18.009 45.2548 17.8302 45.076C17.6515 44.8973 17.409 44.7969 17.1562 44.7969H15.25V40.9844H17.1562C17.409 40.9844 17.6515 40.884 17.8302 40.7052C18.009 40.5265 18.1094 40.284 18.1094 40.0312V36.2188C18.1094 35.966 18.009 35.7235 17.8302 35.5448C17.6515 35.366 17.409 35.2656 17.1562 35.2656H15.25V31.4531H17.1562C17.409 31.4531 17.6515 31.3527 17.8302 31.174C18.009 30.9952 18.1094 30.7528 18.1094 30.5V29.5469H23.8281V30.5C23.8281 30.7528 23.9285 30.9952 24.1073 31.174C24.286 31.3527 24.5285 31.4531 24.7812 31.4531H26.6875V35.2656H24.7812C24.5285 35.2656 24.286 35.366 24.1073 35.5448C23.9285 35.7235 23.8281 35.966 23.8281 36.2188V40.0312C23.8281 40.284 23.9285 40.5265 24.1073 40.7052C24.286 40.884 24.5285 40.9844 24.7812 40.9844H30.5C30.7528 40.9844 30.9952 40.884 31.174 40.7052C31.3527 40.5265 31.4531 40.284 31.4531 40.0312V39.0781H34.3125V37.1719H31.4531V36.2188C31.4531 35.966 31.3527 35.7235 31.174 35.5448C30.9952 35.366 30.7528 35.2656 30.5 35.2656H28.5938V31.4531H30.5C30.7528 31.4531 30.9952 31.3527 31.174 31.174C31.3527 30.9952 31.4531 30.7528 31.4531 30.5V29.5469H34.3125V27.6406H31.4531V26.6875C31.4531 26.4347 31.3527 26.1923 31.174 26.0135C30.9952 25.8348 30.7528 25.7344 30.5 25.7344H24.7812C24.5285 25.7344 24.286 25.8348 24.1073 26.0135C23.9285 26.1923 23.8281 26.4347 23.8281 26.6875V27.6406H18.1094V26.6875C18.1094 26.4347 18.009 26.1923 17.8302 26.0135C17.6515 25.8348 17.409 25.7344 17.1562 25.7344H15.25V21.9219H17.1562C17.409 21.9219 17.6515 21.8215 17.8302 21.6427C18.009 21.464 18.1094 21.2215 18.1094 20.9688V20.0156H23.8281V20.9688C23.8281 21.2215 23.9285 21.464 24.1073 21.6427C24.286 21.8215 24.5285 21.9219 24.7812 21.9219ZM25.7344 18.1094H29.5469V20.0156H25.7344V18.1094ZM25.7344 46.7031H29.5469V48.6094H25.7344V46.7031ZM29.5469 37.1719V39.0781H25.7344V37.1719H29.5469ZM25.7344 27.6406H29.5469V29.5469H25.7344V27.6406ZM16.2031 46.7031V48.6094H12.3906V46.7031H16.2031ZM16.2031 37.1719V39.0781H12.3906V37.1719H16.2031ZM16.2031 27.6406V29.5469H12.3906V27.6406H16.2031ZM16.2031 20.0156H12.3906V18.1094H16.2031V20.0156Z" fill="#0267FF"/>
</svg>
