<svg width="20" height="20" viewBox="0 0 20 20" fill="none" xmlns="http://www.w3.org/2000/svg">
<path d="M12.6035 9.99942C12.6035 11.433 11.4336 12.6029 9.99998 12.6029C8.56639 12.6029 7.39647 11.433 7.39647 9.99942C7.39647 8.56583 8.56639 7.3959 9.99998 7.3959C11.4336 7.3959 12.6035 8.56583 12.6035 9.99942ZM9.99998 2.19083C11.0781 2.19083 12.1465 2.18106 13.2226 2.24161C14.4726 2.30215 15.582 2.58731 16.4961 3.50137C17.4121 4.41739 17.6953 5.52481 17.7558 6.77481C17.8164 7.85294 17.8066 8.9213 17.8066 9.99747C17.8066 11.0756 17.8164 12.144 17.7558 13.2201C17.6953 14.4701 17.4101 15.5795 16.4961 16.4936C15.5801 17.4096 14.4726 17.6928 13.2226 17.7533C12.1445 17.8139 11.0762 17.8041 9.99998 17.8041C8.92381 17.8041 7.8535 17.8139 6.77733 17.7533C5.52733 17.6928 4.41795 17.4076 3.50389 16.4936C2.58787 15.5775 2.30467 14.4701 2.24413 13.2201C2.18358 12.142 2.19334 11.0736 2.19334 9.99747C2.19334 8.91934 2.18358 7.85098 2.24412 6.77481C2.30467 5.52481 2.58983 4.41544 3.50389 3.50137C4.41991 2.58536 5.52733 2.30216 6.77733 2.24161C7.8535 2.17911 8.92186 2.19083 9.99998 2.19083ZM5.99413 9.99942C5.99413 12.2162 7.78319 14.0053 9.99998 14.0053C12.2168 14.0053 14.0058 12.2162 14.0058 9.99942C14.0058 7.78262 12.2168 5.99356 9.99998 5.99356C7.78319 5.99356 5.99412 7.78262 5.99413 9.99942ZM13.2344 5.8295C13.2344 6.34708 13.6523 6.76505 14.1699 6.76505C14.6875 6.76505 15.1055 6.34708 15.1055 5.8295C15.1055 5.31192 14.6875 4.89395 14.1699 4.89395C14.047 4.8938 13.9253 4.91789 13.8117 4.96485C13.6981 5.01181 13.5949 5.08072 13.508 5.16762C13.4211 5.25453 13.3522 5.35772 13.3053 5.4713C13.2583 5.58487 13.2342 5.7066 13.2344 5.8295Z" fill="black"/>
</svg>
