<svg width="20" height="20" viewBox="0 0 20 20" fill="none" xmlns="http://www.w3.org/2000/svg">
<path d="M9.99997 7.39647C8.56638 7.39647 7.39646 8.56639 7.39646 9.99998C7.39646 11.4336 8.56638 12.6035 9.99997 12.6035C11.4336 12.6035 12.6035 11.4336 12.6035 9.99998C12.6035 8.56639 11.4336 7.39647 9.99997 7.39647ZM17.8086 9.99998C17.8086 8.92186 17.8183 7.8535 17.7578 6.77733C17.6972 5.52733 17.4121 4.41795 16.498 3.50389C15.582 2.58788 14.4746 2.30467 13.2246 2.24413C12.1465 2.18358 11.0781 2.19335 10.0019 2.19335C8.9238 2.19335 7.85544 2.18358 6.77927 2.24413C5.52927 2.30467 4.41989 2.58983 3.50583 3.50389C2.58981 4.41991 2.30661 5.52733 2.24606 6.77733C2.18552 7.85545 2.19528 8.92381 2.19528 9.99998C2.19528 11.0762 2.18552 12.1465 2.24606 13.2226C2.30661 14.4726 2.59177 15.582 3.50583 16.4961C4.42185 17.4121 5.52927 17.6953 6.77927 17.7558C7.85739 17.8164 8.92575 17.8066 10.0019 17.8066C11.08 17.8066 12.1484 17.8164 13.2246 17.7558C14.4746 17.6953 15.584 17.4101 16.498 16.4961C17.414 15.5801 17.6972 14.4726 17.7578 13.2226C17.8203 12.1465 17.8086 11.0781 17.8086 9.99998ZM9.99997 14.0058C7.78317 14.0058 5.99411 12.2168 5.99411 9.99998C5.99411 7.78319 7.78317 5.99413 9.99997 5.99413C12.2168 5.99413 14.0058 7.78319 14.0058 9.99998C14.0058 12.2168 12.2168 14.0058 9.99997 14.0058ZM14.1699 6.76561C13.6523 6.76561 13.2343 6.34764 13.2343 5.83006C13.2343 5.31249 13.6523 4.89452 14.1699 4.89452C14.6875 4.89452 15.1054 5.31249 15.1054 5.83006C15.1056 5.95296 15.0815 6.07469 15.0345 6.18826C14.9876 6.30184 14.9187 6.40503 14.8318 6.49194C14.7449 6.57884 14.6417 6.64775 14.5281 6.69471C14.4145 6.74167 14.2928 6.76576 14.1699 6.76561Z" fill="white"/>
</svg>
