<svg width="195" height="54" viewBox="0 0 195 54" fill="none" xmlns="http://www.w3.org/2000/svg">
<path d="M7.072 43H2.464V20.6H18.88V24.728H7.072V29.272H16.192V33.336H7.072V43ZM27.2938 43H22.7178V20.6H27.2938V43ZM40.7543 43H32.3703V20.6H40.7543C44.3809 20.6 47.3356 21.6453 49.6183 23.736C51.9009 25.8267 53.0423 28.5147 53.0423 31.8C53.0423 35.1067 51.9009 37.8053 49.6183 39.896C47.3569 41.9653 44.4023 43 40.7543 43ZM36.9783 24.728V38.872H40.3703C42.8663 38.872 44.8076 38.2533 46.1943 37.016C47.6023 35.7573 48.3063 34.0187 48.3063 31.8C48.3063 29.5813 47.6023 27.8533 46.1943 26.616C44.8076 25.3573 42.8663 24.728 40.3703 24.728H36.9783ZM74.014 43H57.214V20.6H73.662V24.728H61.822V29.048H71.358V33.112H61.822V38.872H74.014V43ZM85.1068 43.448C81.7361 43.448 78.8988 42.648 76.5948 41.048V36.248C77.5334 37.0587 78.7708 37.7627 80.3068 38.36C81.8641 38.936 83.4001 39.224 84.9148 39.224C86.1734 39.224 87.2081 39 88.0188 38.552C88.8294 38.0827 89.2348 37.4427 89.2348 36.632C89.2348 35.7573 88.8508 35.1387 88.0828 34.776C87.7628 34.584 87.3361 34.392 86.8028 34.2L86.0348 33.944L84.2428 33.4L82.5788 32.856C82.3441 32.792 81.8428 32.6107 81.0748 32.312C80.4134 32.056 79.9334 31.832 79.6348 31.64C78.5254 30.872 77.8214 30.2213 77.5228 29.688C77.0108 28.664 76.7548 27.6187 76.7548 26.552C76.7548 24.568 77.5121 23.0107 79.0268 21.88C80.5414 20.728 82.6001 20.152 85.2028 20.152C87.8268 20.152 90.2694 20.7707 92.5308 22.008V26.488C90.2481 25.08 87.8268 24.376 85.2668 24.376C82.7281 24.376 81.4588 25.112 81.4588 26.584C81.4588 27.224 81.8534 27.736 82.6428 28.12C83.1121 28.376 83.7201 28.6 84.4668 28.792C85.4694 29.0693 86.2801 29.304 86.8988 29.496C88.7548 30.072 90.3761 30.8507 91.7628 31.832C93.2561 32.8773 94.0028 34.4347 94.0028 36.504C94.0028 38.6587 93.1601 40.3547 91.4748 41.592C89.7894 42.8293 87.6668 43.448 85.1068 43.448Z" fill="white"/>
<path d="M2.672 14H0.256L5.056 2.736H7.264L12.064 14H9.616L8.512 11.408H3.776L2.672 14ZM6.144 5.616L4.496 9.504H7.776L6.144 5.616ZM14.7605 16.288H12.6005V11.936H13.7045C14.2058 11.168 14.5792 10.208 14.8245 9.056C15.0592 7.94667 15.1765 6.45333 15.1765 4.576V2.8H23.0485V11.936H24.5845V16.288H22.4245V14H14.7605V16.288ZM16.2485 11.936H20.7445V4.864H17.4645C17.4645 6.41067 17.3738 7.73867 17.1925 8.848C17.0218 9.95733 16.7072 10.9867 16.2485 11.936ZM31.8953 14H26.2633V2.8H31.5273C32.5619 2.8 33.3833 3.04533 33.9913 3.536C34.6099 4.02667 34.9193 4.71467 34.9193 5.6C34.9193 6.144 34.7859 6.608 34.5193 6.992C34.2526 7.376 33.9166 7.65333 33.5113 7.824C34.1193 7.952 34.6526 8.28267 35.1113 8.816C35.5593 9.33867 35.7833 10.0053 35.7833 10.816C35.7833 11.7653 35.4313 12.5333 34.7273 13.12C34.0339 13.7067 33.0899 14 31.8953 14ZM28.5673 9.088V12.016H31.4633C32.0393 12.016 32.4873 11.8933 32.8073 11.648C33.1273 11.392 33.2873 11.0293 33.2873 10.56C33.2873 10.0907 33.1273 9.728 32.8073 9.472C32.4873 9.216 32.0393 9.088 31.4633 9.088H28.5673ZM28.5673 4.72V7.184H31.1593C31.6393 7.184 32.0126 7.07733 32.2793 6.864C32.5566 6.65067 32.6953 6.352 32.6953 5.968C32.6953 5.57333 32.5566 5.26933 32.2793 5.056C32.0126 4.832 31.6393 4.72 31.1593 4.72H28.5673ZM40.426 11.024C41.0873 11.7173 41.914 12.064 42.906 12.064C43.8873 12.064 44.7087 11.7173 45.37 11.024C46.0313 10.3307 46.362 9.456 46.362 8.4C46.362 7.344 46.0313 6.46933 45.37 5.776C44.7087 5.08267 43.8873 4.736 42.906 4.736C41.914 4.736 41.0873 5.08267 40.426 5.776C39.7753 6.45867 39.45 7.33333 39.45 8.4C39.45 9.46667 39.7753 10.3413 40.426 11.024ZM37.098 8.4C37.098 6.75733 37.6473 5.38133 38.746 4.272C39.8447 3.14133 41.2313 2.576 42.906 2.576C44.57 2.576 45.9513 3.14133 47.05 4.272C48.1593 5.40267 48.714 6.77867 48.714 8.4C48.714 10.0107 48.1593 11.3867 47.05 12.528C45.9513 13.6587 44.57 14.224 42.906 14.224C41.2313 14.224 39.8447 13.6587 38.746 12.528C37.6473 11.3973 37.098 10.0213 37.098 8.4ZM53.0985 14H50.7945V2.8H53.0985V7.216L57.2265 2.8H60.0425L55.2905 7.936L60.8585 14H57.9145L53.0985 8.832V14ZM63.5314 14H61.1154L65.9154 2.736H68.1234L72.9234 14H70.4754L69.3714 11.408H64.6354L63.5314 14ZM67.0034 5.616L65.3554 9.504H68.6354L67.0034 5.616ZM72.0581 4.864V2.8H81.4501V4.864H77.8981V14H75.5941V4.864H72.0581ZM88.0214 14.224C86.2827 14.224 84.8374 13.68 83.6854 12.592C82.5334 11.4827 81.9574 10.0853 81.9574 8.4C81.9574 6.69333 82.528 5.296 83.6694 4.208C84.8214 3.12 86.272 2.576 88.0214 2.576C89.1094 2.576 90.096 2.81067 90.9814 3.28V5.6C90.1174 5.024 89.136 4.736 88.0374 4.736C86.9814 4.736 86.0907 5.08267 85.3654 5.776C84.6614 6.45867 84.3094 7.33333 84.3094 8.4C84.3094 9.46667 84.672 10.3467 85.3974 11.04C86.112 11.7227 87.024 12.064 88.1334 12.064C89.36 12.064 90.384 11.7387 91.2054 11.088V13.408C90.2987 13.952 89.2374 14.224 88.0214 14.224ZM95.4735 14H93.1695V2.8H95.4735V7.216L99.6015 2.8H102.418L97.6655 7.936L103.234 14H100.29L95.4735 8.832V14ZM105.906 14H103.49L108.29 2.736H110.498L115.298 14H112.85L111.746 11.408H107.01L105.906 14ZM109.378 5.616L107.73 9.504H111.01L109.378 5.616ZM118.475 14H115.819L119.323 9.216C118.587 8.992 118.011 8.608 117.595 8.064C117.19 7.50933 116.987 6.85867 116.987 6.112C116.987 5.13067 117.334 4.336 118.027 3.728C118.71 3.10933 119.648 2.8 120.843 2.8H126.027V14H123.723V9.472H121.771L118.475 14ZM120.971 7.536H123.723V4.816H120.971C120.448 4.816 120.038 4.93867 119.739 5.184C119.451 5.41867 119.307 5.74933 119.307 6.176C119.307 6.61333 119.451 6.94933 119.739 7.184C120.038 7.41867 120.448 7.536 120.971 7.536ZM139.951 14.432H137.631V13.2C135.903 13.136 134.57 12.6293 133.631 11.68C132.692 10.7307 132.223 9.60533 132.223 8.304C132.223 6.992 132.692 5.86667 133.631 4.928C134.58 3.97867 135.914 3.472 137.631 3.408V2.384H139.951V3.408C141.668 3.472 143.002 3.97867 143.951 4.928C144.89 5.86667 145.359 6.992 145.359 8.304C145.359 9.60533 144.89 10.7307 143.951 11.68C143.012 12.6293 141.679 13.136 139.951 13.2V14.432ZM137.631 11.12V5.488C136.671 5.49867 135.924 5.76 135.391 6.272C134.858 6.77333 134.591 7.45067 134.591 8.304C134.591 9.14667 134.858 9.824 135.391 10.336C135.924 10.8373 136.671 11.0987 137.631 11.12ZM139.951 5.488V11.12C140.911 11.0987 141.658 10.8373 142.191 10.336C142.724 9.824 142.991 9.14667 142.991 8.304C142.991 7.45067 142.724 6.77333 142.191 6.272C141.658 5.76 140.911 5.49867 139.951 5.488ZM149.371 14H147.435V2.8H149.739V10.096L155.163 2.8H157.147V14H154.859V6.656L149.371 14ZM161.927 14H159.623V2.8H164.519C165.724 2.8 166.673 3.11467 167.367 3.744C168.071 4.36267 168.423 5.17333 168.423 6.176C168.423 7.18933 168.071 8.00533 167.367 8.624C166.673 9.25333 165.724 9.568 164.519 9.568H161.927V14ZM161.927 4.816V7.6H164.359C164.913 7.6 165.345 7.48267 165.655 7.248C165.964 7.00267 166.119 6.656 166.119 6.208C166.119 5.76 165.964 5.41867 165.655 5.184C165.345 4.93867 164.913 4.816 164.359 4.816H161.927ZM172.474 14H170.17V2.8H172.458L175.706 7.44L178.954 2.8H181.226V14H178.954V6.336L176.378 9.936H175.098L172.474 6.336V14ZM185.141 14H182.725L187.525 2.736H189.733L194.533 14H192.085L190.981 11.408H186.245L185.141 14ZM188.613 5.616L186.965 9.504H190.245L188.613 5.616Z" fill="white"/>
</svg>
