<svg width="21" height="18" viewBox="0 0 21 18" fill="none" xmlns="http://www.w3.org/2000/svg">
<path d="M20.865 2.03466C20.3078 2.91053 19.6241 3.65717 18.8141 4.27458C18.8221 4.44016 18.8261 4.62732 18.8261 4.83604C18.8261 5.99574 18.6661 7.15685 18.3461 8.31936C18.0261 9.48188 17.5373 10.5946 16.8797 11.6576C16.2221 12.7205 15.4387 13.6622 14.5297 14.4826C13.6206 15.303 12.5279 15.9572 11.2515 16.4451C9.97505 16.933 8.60709 17.1769 7.14757 17.1769C4.86975 17.1769 2.77209 16.5271 0.854614 15.2275C1.19494 15.2675 1.52135 15.2875 1.83383 15.2875C3.73677 15.2875 5.4364 14.6681 6.93272 13.4294C6.04546 13.4122 5.25085 13.1235 4.5489 12.5635C3.84695 12.0034 3.36388 11.2878 3.0997 10.4166C3.36082 10.4691 3.61855 10.4954 3.87287 10.4954C4.23895 10.4954 4.59916 10.445 4.95351 10.3441C4.00664 10.1437 3.22114 9.6453 2.59699 8.84898C1.97286 8.05267 1.6608 7.13357 1.6608 6.09169V6.03799C2.24199 6.37805 2.86192 6.55893 3.5206 6.58065C2.95968 6.18548 2.51496 5.67018 2.18643 5.03474C1.85788 4.3993 1.6936 3.71164 1.6936 2.97176C1.6936 2.19144 1.87864 1.46481 2.24871 0.791873C3.27842 2.12717 4.52612 3.19438 5.99181 3.99351C7.45753 4.79265 9.02997 5.23647 10.7091 5.32496C10.6375 5.00956 10.6016 4.68042 10.6015 4.33755C10.6015 3.14036 11.0024 2.11814 11.8042 1.27089C12.6061 0.423628 13.5735 0 14.7064 0C15.8925 0 16.8916 0.456396 17.7036 1.36919C18.6314 1.17499 19.5001 0.823724 20.3098 0.315402C19.9979 1.35277 19.3968 2.15303 18.5066 2.71618C19.3248 2.61344 20.1109 2.38627 20.865 2.03466H20.865Z" fill="white"/>
</svg>
